<?xml version="1.0" encoding="UTF-8"?>
<svg version="1.1" xmlns="http://www.w3.org/2000/svg" width="512" height="512">
<path d="M0 0 C0.82489516 -0.00445784 1.64979032 -0.00891569 2.49968231 -0.01350862 C3.85111286 -0.01323207 3.85111286 -0.01323207 5.22984505 -0.01294994 C6.19118673 -0.01662663 7.15252842 -0.02030332 8.14300168 -0.02409142 C11.37313689 -0.03512828 14.60323994 -0.03897218 17.83339119 -0.04278088 C20.14621266 -0.0490457 22.45903313 -0.05569252 24.77185249 -0.0626936 C32.37715643 -0.08374042 39.98246058 -0.09409904 47.58778572 -0.10406017 C50.20755842 -0.108108 52.82733102 -0.11222493 55.4471035 -0.11641026 C66.34861361 -0.13328225 77.25012081 -0.147915 88.15164185 -0.155159 C90.97964034 -0.15706873 93.80763882 -0.15898908 96.63563728 -0.16094494 C97.68989931 -0.16167055 97.68989931 -0.16167055 98.76545955 -0.16241082 C110.1336512 -0.17069896 121.50173721 -0.19601454 132.86988281 -0.22852562 C144.55666739 -0.26167366 156.24339845 -0.2796149 167.93023026 -0.28280324 C174.48562559 -0.28514987 181.04085408 -0.29405972 187.59620476 -0.31926441 C193.77025821 -0.34261854 199.94403585 -0.34674871 206.1181221 -0.33650303 C208.37628474 -0.33600929 210.63446128 -0.34228166 212.89258194 -0.35605907 C234.24220157 -0.47896075 251.22847933 2.73612186 267.04872322 18.20843983 C281.61608843 33.08711575 286.41969901 50.91097507 286.29164314 71.31293201 C286.28304315 73.39756954 286.31218926 75.47953285 286.3436451 77.56390858 C286.38887604 86.03545732 286.05491568 94.49099574 280.09535408 101.06488514 C274.26050329 106.49194648 268.6843606 107.60064638 260.85341072 107.44672108 C254.87807095 106.82590656 251.26965922 104.52663627 247.03309822 100.38422108 C240.98568721 91.39949615 241.40093582 82.59403995 241.40980721 72.11566639 C241.47129215 59.90832005 241.47129215 59.90832005 235.46937752 49.62689686 C228.44439341 43.21641291 220.1208575 43.62367509 211.22059822 43.82172108 C204.48372201 44.16485569 199.47354722 46.0236389 194.90809822 51.07172108 C191.69370635 55.84460598 190.6481655 59.81815902 190.03309822 65.50922108 C189.18225894 71.17721811 188.29792704 75.32836623 183.84559822 79.13422108 C174.4019082 85.39087539 164.08993559 86.43769958 153.01503181 86.40887928 C151.98278984 86.41399021 150.95054787 86.41910114 149.88702583 86.42436695 C146.50596868 86.43816417 143.12511752 86.43731425 139.74403572 86.43500233 C137.37852593 86.43889343 135.01301683 86.44322895 132.64750862 86.44798756 C127.70342423 86.4554276 122.75941129 86.45517365 117.81532478 86.44989491 C111.48934664 86.44408985 105.1636603 86.46106728 98.83773041 86.48423958 C93.9580382 86.49898718 89.07841622 86.49984743 84.19870567 86.49672985 C81.86638115 86.4972421 79.5340526 86.50246169 77.2017498 86.51254177 C73.94009945 86.52491453 70.67901721 86.51811007 67.41737556 86.50653553 C66.4613192 86.51417927 65.50526283 86.52182301 64.52023506 86.52969837 C57.81084038 86.47722443 52.15880757 85.57006488 46.60341072 81.48578358 C46.0645826 80.91601795 45.52575447 80.34625233 44.97059822 79.75922108 C44.41630135 79.1946117 43.86200447 78.63000233 43.29091072 78.04828358 C40.33922289 74.13929158 39.62567839 70.20401602 38.96010017 65.41034412 C37.98533881 58.66896705 36.93726142 53.38452711 31.76356697 48.55218983 C23.91006022 42.7460331 14.22622572 43.3009779 4.84559822 44.13422108 C-0.79376509 45.18548967 -4.47838097 47.72299611 -8.15440178 52.13422108 C-11.74732472 57.39528681 -12.27915161 61.3792053 -12.28582954 67.69484043 C-12.28890849 68.68586694 -12.28890849 68.68586694 -12.29204965 69.6969142 C-12.29772363 71.92039954 -12.29626191 74.14382302 -12.29484367 76.36731434 C-12.29742708 77.97373789 -12.30044017 79.58016079 -12.30384707 81.1865828 C-12.31192318 85.6087175 -12.31370699 90.03083598 -12.31444454 94.45297718 C-12.31629403 99.21929835 -12.32384082 103.98561108 -12.33057976 108.75192738 C-12.3441678 119.17751385 -12.35018849 129.60309648 -12.35459042 140.02869034 C-12.35735196 146.53686257 -12.36158915 153.04503331 -12.36609459 159.55320454 C-12.37828772 177.56790416 -12.38858705 195.58260259 -12.39196968 213.59730625 C-12.39218925 214.75052166 -12.39240881 215.90373707 -12.39263503 217.0918984 C-12.39285331 218.24789204 -12.39307159 219.40388568 -12.39329648 220.59490943 C-12.39373995 222.9374404 -12.39418651 225.27997136 -12.39463615 227.62250233 C-12.3949683 229.36547123 -12.3949683 229.36547123 -12.39530715 231.14365163 C-12.39925579 249.97500225 -12.41671163 268.80631419 -12.43999568 287.63764986 C-12.46370107 306.96554877 -12.47617116 326.29342826 -12.4773376 345.62134194 C-12.4782548 356.47565997 -12.4840185 367.3299276 -12.50215721 378.18423176 C-12.5175472 387.42633351 -12.52268515 396.66836929 -12.51441911 405.91048142 C-12.51050875 410.62637056 -12.51146106 415.34212678 -12.52547646 420.05799961 C-12.53819208 424.37598993 -12.53703846 428.69374713 -12.52488574 433.01173702 C-12.52292469 434.5729899 -12.52602601 436.13425917 -12.53473011 437.69548902 C-12.74184475 450.71458216 -12.74184475 450.71458216 -6.77940178 461.94672108 C-0.04841223 467.55587903 5.03691213 468.28327949 13.61810493 468.2813921 C14.96127862 468.28690713 14.96127862 468.28690713 16.33158714 468.29253358 C19.33846055 468.30356525 22.3452994 468.30741339 25.35219002 468.31122303 C27.5056386 468.31748805 29.65908611 468.32413489 31.81253242 468.33113575 C38.88995295 468.35217326 45.96737369 468.36253759 53.04481697 468.37250233 C55.48144543 468.37654994 57.91807377 468.38066687 60.354702 468.38485241 C71.80175814 468.40390309 83.24880783 468.4181346 94.69587678 468.42646438 C107.90877074 468.43623791 121.12149722 468.46256113 134.33433217 468.50296527 C144.54763388 468.53312512 154.76088759 468.54793313 164.97423297 468.55124539 C171.07395946 468.55359594 177.17350701 468.56255741 183.27318573 468.58770657 C189.01303942 468.6109899 194.75259637 468.61521928 200.49248505 468.60494518 C202.59633051 468.60444979 204.7001906 468.61077128 206.80399132 468.62450123 C209.68240603 468.6422318 212.55975712 468.63510803 215.43817329 468.62196827 C216.26523787 468.63293752 217.09230244 468.64390676 217.94442958 468.65520841 C224.36119483 468.58477915 230.52291189 467.07399033 235.44141883 462.72230798 C239.91859543 457.63143305 241.08507875 453.08184905 241.11903572 446.43500233 C241.13966072 445.14271717 241.16028572 443.85043201 241.18153572 442.5189867 C241.20398845 440.48969895 241.22055745 438.4607459 241.2264576 436.43134022 C241.3158598 418.13741387 241.3158598 418.13741387 247.59510994 411.20184803 C253.43433048 405.77899077 259.00491639 404.66775804 266.83778572 404.82172108 C272.81312549 405.4425356 276.42153723 407.74180588 280.65809822 411.88422108 C286.39328949 420.40507667 286.37297719 428.63902622 286.28309822 438.57172108 C286.2797245 439.28631489 286.27635078 440.0009087 286.27287483 440.73715687 C286.12822231 461.82595634 281.73484323 479.12709682 266.53309822 494.54437733 C250.03132954 510.44651778 232.0093155 512.58721344 210.12318611 512.52240467 C207.8159377 512.52647403 205.50869124 512.53181795 203.20144844 512.53833485 C196.95764266 512.55197155 190.71398617 512.54672458 184.47017789 512.53719759 C177.92282359 512.52958121 171.37548173 512.53665218 164.82812691 512.54135609 C153.13023071 512.54775572 141.43239708 512.5378564 129.73451173 512.52257808 C119.14854155 512.5091795 108.56267012 512.51150226 97.97670174 512.52533436 C85.65747119 512.54142388 73.33830352 512.54734613 61.01906389 512.53849757 C54.5074781 512.53383164 47.99596018 512.53316641 41.48437881 512.54310703 C35.36031867 512.55180359 29.23644407 512.54570558 23.11240387 512.52842426 C20.87114583 512.52447361 18.62987205 512.52556895 16.38862038 512.53221226 C-4.80111746 512.58920697 -22.27436622 509.42579605 -38.14292717 494.41351795 C-50.70352726 481.83350426 -56.39325505 465.91775509 -56.43121278 448.48354703 C-56.42827097 446.91249958 -56.42513557 445.34145249 -56.42182732 443.77040577 C-56.42556613 442.08984571 -56.43016857 440.40928739 -56.43555796 438.72873181 C-56.44777491 434.12004245 -56.44752903 429.51142576 -56.44516921 424.90272391 C-56.44476071 419.92846126 -56.45580338 414.9542218 -56.46528435 409.97996998 C-56.48188839 400.23768014 -56.48739363 390.4954145 -56.4885091 380.7531117 C-56.4894599 372.83245268 -56.49357179 364.91180163 -56.49991035 356.99114513 C-56.51752148 334.5265483 -56.52674948 312.06197057 -56.52524941 289.59736679 C-56.52516949 288.38661122 -56.52508958 287.17585566 -56.52500725 285.92841053 C-56.52492549 284.71617375 -56.52484373 283.50393697 -56.52475949 282.25496574 C-56.52394672 262.61244983 -56.54308233 242.97001062 -56.57128398 223.32751689 C-56.60002362 203.15082397 -56.61382367 182.97416844 -56.61209643 162.79745454 C-56.61143288 151.47297882 -56.61690976 140.14858351 -56.63845253 128.82412624 C-56.65667855 119.18150133 -56.66099998 109.53899328 -56.64743368 99.89635859 C-56.64091113 94.97928866 -56.64076112 90.06244283 -56.65814018 85.14539433 C-56.67390747 80.63788296 -56.67097004 76.13077269 -56.65357192 71.62327089 C-56.65051005 69.99879237 -56.65410353 68.37428365 -56.66529207 66.74984077 C-56.79161561 47.09640821 -50.7852114 31.1278266 -37.02549553 16.93890858 C-27.5841036 8.05487968 -13.31692507 0.03350711 0 0 Z " fill="#ffffff" transform="translate(56.154401779174805,-0.13422107696533203)"/>
<path d="M0 0 C2.23843337 -0.00542721 4.47686316 -0.01255323 6.71528625 -0.02124023 C12.76693114 -0.03940501 18.81830185 -0.03243425 24.86995125 -0.01972389 C31.21844316 -0.00956074 37.56691239 -0.01899876 43.91540527 -0.02526855 C55.25608993 -0.03300008 66.59663606 -0.02060933 77.93729299 -0.00023121 C88.19865391 0.01763735 98.45983376 0.01453247 108.72119141 -0.00390625 C120.66651421 -0.02536117 132.61172723 -0.03325446 144.55707598 -0.0214572 C150.86969375 -0.01523751 157.18218709 -0.01434469 163.49479675 -0.02760315 C169.43096958 -0.03920123 175.36680219 -0.03106344 181.30293846 -0.00802612 C183.47485478 -0.00276018 185.64679998 -0.00421632 187.81870461 -0.01307678 C203.97044102 -0.07286843 217.57536543 1.02769968 229.96289062 12.51757812 C237.44835594 20.33821353 241.90999967 29.61365162 241.95381165 40.46730042 C241.9645446 42.294403 241.9645446 42.294403 241.97549438 44.15841675 C241.97833448 45.50543187 241.98104623 46.85244727 241.98364258 48.19946289 C241.98991047 49.62061223 241.99655756 51.04175995 242.0035553 52.46290588 C242.02456601 57.12825384 242.03495748 61.793602 242.04492188 66.45898438 C242.04897108 68.0684352 242.05308805 69.67788586 242.05727196 71.28733635 C242.07632005 78.85268098 242.09054975 86.4180159 242.09888393 93.9833799 C242.10864385 102.69783274 242.13493224 111.41203074 242.17538482 120.12639385 C242.20562124 126.87308953 242.22036006 133.61971249 242.22366494 140.36647457 C242.22600758 144.39049946 242.23486439 148.414252 242.26012611 152.43820381 C242.283543 156.22958642 242.28758606 160.02052 242.27736473 163.81195641 C242.27663952 165.85069014 242.29563618 167.88940177 242.31542969 169.92803955 C242.24322678 182.7989535 238.53844865 193.1166043 229.84179688 202.67773438 C222.71956206 209.56814238 212.86412311 214.62554764 202.77159119 214.6517992 C201.97332979 214.65625705 201.1750684 214.66071489 200.35261726 214.66530782 C199.04583173 214.66503128 199.04583173 214.66503128 197.71264648 214.66474915 C196.78256208 214.66842583 195.85247768 214.67210252 194.89420891 214.67589062 C191.76996183 214.68692515 188.64574802 214.69077096 185.52148438 214.69458008 C183.28423456 214.70084501 181.04698579 214.70749184 178.80973816 214.7144928 C171.45454635 214.73553577 164.09935434 214.74589685 156.74414062 214.75585938 C154.21099842 214.75990714 151.67785633 214.76402406 149.14471436 214.76820946 C138.60520722 214.78507986 128.06570224 214.79971338 117.52618408 214.8069582 C114.79235838 214.80886795 112.0585327 214.8107883 109.32470703 214.81274414 C108.30554545 214.81346975 108.30554545 214.81346975 107.26579475 214.81421002 C96.27130884 214.82250164 85.27693203 214.84782391 74.28249371 214.88032482 C62.98218568 214.9134561 51.6819309 214.9310802 40.38156796 214.93460244 C34.04197467 214.9369505 27.70255378 214.94587931 21.36300659 214.97106361 C15.39415051 214.99439165 9.42557974 214.99855835 3.45668983 214.98830223 C1.27186444 214.98780788 -0.91297522 214.99409837 -3.09775734 215.00785828 C-19.53252383 215.10553167 -32.46494817 214.15107224 -45.19335938 202.51757812 C-55.27109907 191.49134528 -57.8030444 179.73895599 -57.7109375 165.12695312 C-57.71637245 163.7259448 -57.72350274 162.3249422 -57.73217773 160.9239502 C-57.75025137 157.15523479 -57.74341058 153.38696248 -57.73066139 149.61824036 C-57.72045006 145.652058 -57.72994943 141.6859106 -57.73620605 137.71972656 C-57.74345901 131.06243156 -57.73395692 124.40531475 -57.71484375 117.74804688 C-57.69307945 110.07938733 -57.7001325 102.41115336 -57.72214937 94.74250412 C-57.74037083 88.12807987 -57.74282892 81.51378285 -57.7323947 74.89934158 C-57.72619663 70.96207975 -57.72522136 67.02501715 -57.73854065 63.08776855 C-57.75019751 59.38403152 -57.74189695 55.68083678 -57.71896362 51.97715759 C-57.71125492 49.99002808 -57.7229479 48.00285205 -57.73547363 46.01574707 C-57.61338159 32.90960255 -54.10466989 22.26760022 -45.19335938 12.51757812 C-31.57529092 0.07095642 -17.46344739 -0.07124354 0 0 Z M-14.19335938 51.51757812 C-14.19335938 62.73757812 -14.19335938 73.95757812 -14.19335938 85.51757812 C-1.00918824 92.24419605 12.38131792 98.49994439 25.80465698 104.72973633 C31.00790318 107.14476979 36.20641245 109.56980538 41.40245056 112.00030518 C44.52930341 113.46271051 47.65727268 114.92259205 50.78833008 116.37597656 C56.321277 118.94569804 61.84679016 121.52587344 67.33712769 124.18569946 C69.12537248 125.05046575 70.9176405 125.90689647 72.70996094 126.76318359 C74.91265534 127.81594659 77.10915851 128.88180816 79.29785156 129.96337891 C85.20443087 132.76462562 90.25202271 134.96577754 96.80664062 133.51757812 C101.19527112 131.95115372 105.32050965 129.95692948 109.49414062 127.89257812 C110.7325974 127.29650298 111.97195996 126.7023066 113.2121582 126.10986328 C115.79947661 124.87184367 118.38258458 123.62561323 120.96289062 122.37304688 C126.94117874 119.47780656 132.97050047 116.69184741 138.99414062 113.89257812 C140.82487865 113.03716455 142.65561364 112.18174442 144.48620605 111.32601929 C151.55287677 108.02420629 158.6311044 104.74776977 165.71289062 101.47851562 C167.59937604 100.60695698 169.48585066 99.73537496 171.37231445 98.86376953 C174.17201378 97.57029602 176.97210987 96.27772086 179.77352905 94.98797607 C182.38323882 93.7864907 184.99153976 92.5819937 187.59960938 91.37695312 C188.3856958 91.0161264 189.17178223 90.65529968 189.98168945 90.28353882 C190.70662598 89.94794952 191.4315625 89.61236023 192.1784668 89.26660156 C193.12528572 88.83030426 193.12528572 88.83030426 194.0912323 88.38519287 C196.0762993 87.42408076 196.0762993 87.42408076 198.80664062 85.51757812 C199.0736195 82.89295569 199.15497046 80.5069188 199.09960938 77.88476562 C199.09536453 77.13292999 199.09111969 76.38109436 199.08674622 75.60647583 C199.06993233 73.20148127 199.03227687 70.79732003 198.99414062 68.39257812 C198.97909721 66.76368396 198.96540821 65.13477669 198.953125 63.50585938 C198.92002017 59.50944379 198.86822072 55.51365231 198.80664062 51.51757812 C186.66217249 56.88859597 174.62321349 62.4666241 162.61914062 68.14257812 C149.48921328 74.3502755 136.31002332 80.43800838 123.06616211 86.39892578 C117.40948117 88.9479684 111.76434304 91.50176701 106.20898438 94.26757812 C105.02767944 94.85152344 105.02767944 94.85152344 103.82250977 95.44726562 C102.46861041 96.1241381 101.1216075 96.81514753 99.78491211 97.52539062 C95.34558755 99.74286789 92.59944681 99.509343 87.80664062 98.51757812 C85.20153173 97.47142792 82.74274876 96.39141144 80.23242188 95.15820312 C79.51955521 94.81769424 78.80668854 94.47718536 78.07221985 94.12635803 C75.75035349 93.01523418 73.43491835 91.89132834 71.11914062 90.76757812 C69.49450521 89.98807638 67.86933589 89.2096865 66.24365234 88.43237305 C63.7784691 87.25347004 61.313632 86.07390122 58.85046387 84.89079285 C51.73905397 81.47522366 44.59385356 78.13795462 37.43164062 74.83007812 C30.17570492 71.47433377 22.92502322 68.10839655 15.68945312 64.70898438 C14.31887208 64.0659473 12.94826677 63.42296191 11.57763672 62.7800293 C9.59300842 61.84906895 7.60883909 60.91720517 5.62628174 59.98184204 C3.80748891 59.12381426 1.98678155 58.26984844 0.16601562 57.41601562 C-0.87071289 56.92794434 -1.90744141 56.43987305 -2.97558594 55.93701172 C-6.65269541 54.31495447 -10.43027072 52.92873637 -14.19335938 51.51757812 Z " fill="#ffffff" transform="translate(270.193359375,148.482421875)"/>
</svg>
