<?xml version="1.0" encoding="UTF-8"?>
<svg version="1.1" xmlns="http://www.w3.org/2000/svg" width="256" height="256">
<path d="M0 0 C0.90840535 -0.00523668 1.8168107 -0.01047336 2.75274348 -0.01586872 C5.80344796 -0.03089709 8.85398513 -0.0315745 11.90472412 -0.03224182 C14.08935327 -0.03986145 16.27397974 -0.04828861 18.45860291 -0.0574646 C24.39880154 -0.0794372 30.3389487 -0.08821235 36.27918339 -0.09329104 C39.98994878 -0.09693168 43.70070063 -0.10317025 47.41146088 -0.11029243 C59.68757629 -0.13353219 71.96365677 -0.1475026 84.23979369 -0.15082847 C84.9015303 -0.15101128 85.56326691 -0.1511941 86.24505615 -0.15138245 C87.23887606 -0.15165327 87.23887606 -0.15165327 88.25277314 -0.15192956 C98.31766376 -0.15524998 108.3823771 -0.17785829 118.44720459 -0.21290588 C130.13898945 -0.25348203 141.83063842 -0.27684084 153.52249694 -0.27762848 C159.70997173 -0.27842183 165.89718755 -0.28718718 172.08460236 -0.31562614 C177.90576989 -0.34178256 183.72646331 -0.34402514 189.54766273 -0.3279705 C191.68256729 -0.32615405 193.81749896 -0.3328644 195.95234489 -0.34878922 C198.87072771 -0.36922903 201.78744855 -0.35870976 204.70581055 -0.34057617 C205.54746081 -0.35377614 206.38911107 -0.36697611 207.25626588 -0.38057607 C214.01131984 -0.28493669 218.82818996 2.02919213 223.63606763 6.78762251 C228.00047045 11.81108479 229.35549211 15.2274503 229.3742981 21.85148621 C229.37882921 22.51079486 229.38336032 23.17010352 229.38802874 23.84939122 C229.40068197 26.05713115 229.3990518 28.26462468 229.3973999 30.47239685 C229.4033847 32.05604876 229.41019013 33.63969775 229.41775513 35.2233429 C229.43543007 39.52517447 229.44011121 43.82692648 229.4413867 48.12879086 C229.44280832 50.81774917 229.44707819 53.50668727 229.45238113 56.19564056 C229.47088827 65.58054895 229.47905113 74.96540051 229.47747803 84.35032654 C229.47627732 93.09131099 229.49736404 101.83204824 229.52896535 110.57297015 C229.55514403 118.08225499 229.56584461 125.5914592 229.56456721 133.10078931 C229.56405792 137.58355982 229.56972211 142.06611079 229.59092331 146.54883575 C229.61033187 150.76783911 229.61041244 154.98641416 229.59589005 159.20543289 C229.59380389 160.75013736 229.59849136 162.2948688 229.61061096 163.83952713 C229.67721019 172.91901818 229.61439399 180.15376847 223.32562256 187.29759216 C222.75843506 187.74360779 222.19124756 188.18962341 221.60687256 188.64915466 C221.03968506 189.11063904 220.47249756 189.57212341 219.88812256 190.04759216 C215.06102581 193.37151405 211.00920401 193.56476473 205.21374512 193.54830933 C204.30533977 193.553546 203.39693442 193.55878268 202.46100163 193.56417805 C199.41029716 193.57920641 196.35975998 193.57988383 193.309021 193.58055115 C191.12439184 193.58817078 188.93976538 193.59659793 186.75514221 193.60577393 C180.81494357 193.62774653 174.87479642 193.63652168 168.93456173 193.64160037 C165.22379633 193.64524101 161.51304448 193.65147957 157.80228424 193.65860176 C145.52616882 193.68184151 133.25008834 193.69581193 120.97395143 193.6991378 C120.31221482 193.69932061 119.6504782 193.69950342 118.96868896 193.69969177 C117.97486906 193.6999626 117.97486906 193.6999626 116.96097198 193.70023889 C106.89608136 193.70355931 96.83136802 193.72616762 86.76654053 193.76121521 C75.07475567 193.80179136 63.3831067 193.82515017 51.69124818 193.82593781 C45.50377339 193.82673115 39.31655756 193.8354965 33.12914276 193.86393547 C27.30797523 193.89009189 21.4872818 193.89233446 15.66608238 193.87627983 C13.53117782 193.87446337 11.39624616 193.88117373 9.26140022 193.89709854 C6.34301741 193.91753836 3.42629657 193.90701908 0.50793457 193.8888855 C-0.75454082 193.90868545 -0.75454082 193.90868545 -2.04252076 193.9288854 C-8.79757473 193.83324601 -13.61444484 191.51911719 -18.42232251 186.76068681 C-22.78672533 181.73722454 -24.141747 178.32085902 -24.16055298 171.69682312 C-24.16508409 171.03751446 -24.1696152 170.37820581 -24.17428362 169.6989181 C-24.18693685 167.49117817 -24.18530668 165.28368464 -24.18365479 163.07591248 C-24.18963958 161.49226057 -24.19644501 159.90861158 -24.20401001 158.32496643 C-24.22168495 154.02313486 -24.22636609 149.72138284 -24.22764158 145.41951847 C-24.22906321 142.73056015 -24.23333308 140.04162206 -24.23863602 137.35266876 C-24.25714315 127.96776038 -24.26530601 118.58290882 -24.26373291 109.19798279 C-24.2625322 100.45699834 -24.28361892 91.71626109 -24.31522024 82.97533917 C-24.34139891 75.46605433 -24.3520995 67.95685013 -24.35082209 60.44752002 C-24.35031281 55.96474951 -24.35597699 51.48219854 -24.37717819 46.99947357 C-24.39658676 42.78047022 -24.39666732 38.56189517 -24.38214493 34.34287643 C-24.38005877 32.79817197 -24.38474624 31.25344052 -24.39686584 29.7087822 C-24.46346508 20.62929114 -24.40064888 13.39454085 -18.11187744 6.25071716 C-17.54468994 5.80470154 -16.97750244 5.35868591 -16.39312744 4.89915466 C-15.82593994 4.43767029 -15.25875244 3.97618591 -14.67437744 3.50071716 C-9.84728069 0.17679528 -5.7954589 -0.0164554 0 0 Z M3.10687256 15.27415466 C8.10387898 21.11714314 8.10387898 21.11714314 13.35903931 26.64657593 C14.14980362 27.4387149 14.94056793 28.23085388 15.7552948 29.04699707 C16.60334183 29.89144882 17.45138885 30.73590057 18.32513428 31.60594177 C19.68707161 32.96809814 19.68707161 32.96809814 21.07652283 34.35777283 C23.54699606 36.82853103 26.02052339 39.29621047 28.49464178 41.76331782 C31.08692581 44.34931802 33.67634699 46.93818173 36.26608276 49.5267334 C41.16190496 54.41945703 46.06026892 59.30962763 50.95956814 64.19886929 C56.54078995 69.76888398 62.1191465 75.3417645 67.69727302 80.91487873 C79.16397103 92.37114579 90.63423325 103.82383733 102.10687256 115.27415466 C104.98389628 113.88974758 107.05944357 112.5698315 109.31390381 110.29759216 C109.90107178 109.7084906 110.48823975 109.11938904 111.09320068 108.51243591 C111.6958374 107.8975531 112.29847412 107.28267029 112.91937256 106.64915466 C113.51040771 106.05747498 114.10144287 105.46579529 114.71038818 104.85618591 C117.70330538 101.83389439 120.5845543 98.75450189 123.35224915 95.52438354 C126.99924725 91.34059904 130.84796527 87.40531307 134.78631592 83.49705505 C135.88512589 82.40043549 135.88512589 82.40043549 137.00613403 81.28166199 C138.58186185 79.70971302 140.15874286 78.13891932 141.73667717 76.56918526 C144.23060265 74.08809902 146.72132415 71.60383565 149.21125793 69.1187439 C154.48615361 63.85522611 159.76498978 58.5956713 165.04437256 53.33665466 C171.18731044 47.21729439 177.32863519 41.09633314 183.4657917 34.97117424 C185.92566648 32.51780507 188.38851984 30.06745241 190.85148621 27.6171875 C192.34553393 26.12676902 193.83944328 24.6362118 195.33319092 23.14549255 C196.02349899 22.4603508 196.71380707 21.77520905 197.42503357 21.06930542 C198.045979 20.44843048 198.66692444 19.82755554 199.3066864 19.18786621 C199.85067046 18.64610276 200.39465452 18.10433931 200.95512295 17.54615879 C202.2187389 16.4366018 202.2187389 16.4366018 202.10687256 15.27415466 C136.43687256 15.27415466 70.76687256 15.27415466 3.10687256 15.27415466 Z M-8.89312744 27.27415466 C-8.89312744 73.14415466 -8.89312744 119.01415466 -8.89312744 166.27415466 C-4.17130893 162.22688165 0.31890207 158.20348458 4.68475342 153.80979919 C5.30025055 153.19444809 5.91574768 152.57909698 6.54989624 151.94509888 C8.55955254 149.93475256 10.5656553 147.92090055 12.57171631 145.90696716 C13.973968 144.50284805 15.37644237 143.09895131 16.77912903 141.69526672 C20.45228524 138.01831087 24.1224271 134.33836075 27.79193115 130.65776062 C31.54417023 126.8952523 35.29927749 123.13560888 39.05413818 119.37571716 C46.40784592 112.01131717 53.75836964 104.64374799 61.10687256 97.27415466 C59.17371023 93.05032204 56.26686666 90.16340697 52.99749756 86.93431091 C52.09085358 86.02835426 52.09085358 86.02835426 51.16589355 85.10409546 C49.8871915 83.82841028 48.60606407 82.55515222 47.32269287 81.28416443 C45.37261854 79.35225398 43.43057319 77.41255485 41.48968506 75.47142029 C40.24275815 74.22941287 38.99537669 72.9878616 37.74749756 71.74681091 C37.17227356 71.17269974 36.59704956 70.59858856 36.00439453 70.00708008 C33.41875255 67.45123191 30.81757312 64.98683716 28.0043335 62.68211365 C25.18954445 60.34285983 22.660887 57.89332254 20.10687256 55.27415466 C19.06726523 54.22709866 18.02649922 53.18119228 16.98480225 52.13621521 C16.42782654 51.57601181 15.87085083 51.01580841 15.29699707 50.43862915 C12.80705224 47.93529822 10.31444151 45.43462876 7.82171631 42.93406677 C6.50377734 41.61105125 5.18673017 40.2871468 3.87054443 38.96238708 C1.96726374 37.04705732 0.06084218 35.13490468 -1.84625244 33.22337341 C-2.4378717 32.62659286 -3.02949097 32.02981232 -3.63903809 31.41494751 C-5.03821546 30.015576 -6.46303245 28.64191424 -7.89312744 27.27415466 C-8.22312744 27.27415466 -8.55312744 27.27415466 -8.89312744 27.27415466 Z M208.60362244 31.65298462 C207.96201675 32.29818558 207.32041107 32.94338654 206.65936279 33.60813904 C205.6496492 34.61763359 205.6496492 34.61763359 204.61953735 35.64752197 C202.38247028 37.88528889 200.14897166 40.12658325 197.91546631 42.36790466 C196.37011594 43.91511896 194.82454547 45.46211345 193.27876282 47.00889587 C189.20111043 51.09037545 185.12646928 55.17484859 181.0524292 59.25993347 C176.89854892 63.42402358 172.74185375 67.58530164 168.58538818 71.74681091 C160.42311149 79.91982846 152.26401035 88.09600842 144.10687256 96.27415466 C148.06354834 101.01138615 152.18407693 105.4963882 156.55535889 109.85203552 C157.1691037 110.46753265 157.78284851 111.08302979 158.41519165 111.71717834 C160.42060783 113.72695443 162.42960968 115.73309993 164.43890381 117.73899841 C165.84055446 119.14132327 167.24205669 120.54379649 168.64341736 121.94641113 C171.5676839 124.87214624 174.49373754 127.79607889 177.42108154 130.71873474 C181.18187825 134.47380289 184.93812533 138.2333852 188.69307423 141.99429989 C191.57961555 144.88444259 194.46851922 147.77221442 197.35816002 150.65925789 C198.74525134 152.0456804 200.13159546 153.43285088 201.51719093 154.82076836 C203.4441792 156.75027959 205.37431474 158.67658459 207.30535889 160.60203552 C207.88143387 161.18013474 208.45750885 161.75823395 209.05104065 162.35385132 C211.2208177 165.04305724 211.2208177 165.04305724 214.10687256 166.27415466 C214.10687256 120.40415466 214.10687256 74.53415466 214.10687256 27.27415466 C211.79508645 27.27415466 210.16536892 30.09492724 208.60362244 31.65298462 Z M67.47920227 112.64187622 C66.84119186 113.28550613 66.20318146 113.92913605 65.5458374 114.5922699 C64.87254898 115.26365997 64.19926056 115.93505005 63.50556946 116.62678528 C61.27139401 118.85724248 59.04452278 121.09484284 56.81781006 123.33274841 C55.27403576 124.87771395 53.72989258 126.42231097 52.18539429 127.96655273 C48.94582747 131.20768619 45.70965687 134.45216077 42.47601318 137.69920349 C38.32005627 141.87215756 34.15753963 146.0384913 29.99269676 150.20257473 C26.80294824 153.39259449 23.61580761 156.58520873 20.42955399 159.77871895 C18.89507136 161.31639537 17.35997203 162.85345663 15.82426071 164.38990593 C13.68334507 166.53297722 11.54574808 168.6793014 9.40911865 170.8266449 C8.76705978 171.46825058 8.12500092 172.10985626 7.46348572 172.77090454 C4.5088954 175.14999792 4.5088954 175.14999792 3.10687256 178.27415466 C68.77687256 178.27415466 134.44687256 178.27415466 202.10687256 178.27415466 C198.05959955 173.55233615 194.03620248 169.06212515 189.64251709 164.6962738 C188.71949043 163.77302811 188.71949043 163.77302811 187.77781677 162.83113098 C185.76747046 160.82147468 183.75361845 158.81537192 181.73968506 156.80931091 C180.33556595 155.40705923 178.9316692 154.00458485 177.52798462 152.60189819 C173.85102877 148.92874199 170.17107865 145.25860012 166.49047852 141.58909607 C162.72797019 137.83685699 158.96832677 134.08174973 155.20843506 130.32688904 C147.84403506 122.9731813 140.47646589 115.62265758 133.10687256 108.27415466 C131.98975446 109.22496702 130.87359106 110.17690114 129.75782776 111.12930298 C129.13616132 111.65928988 128.51449488 112.18927679 127.87399006 112.73532391 C125.670371 114.65426636 123.60504295 116.67975281 121.55609131 118.76243591 C120.77556396 119.55069763 119.99503662 120.33895935 119.19085693 121.15110779 C118.40001709 121.95483826 117.60917725 122.75856873 116.79437256 123.58665466 C115.19642435 125.21002766 113.59627543 126.8312383 111.99359131 128.44993591 C111.2945166 129.16061218 110.59544189 129.87128845 109.87518311 130.60350037 C107.69485164 132.66342142 106.43768476 133.21114282 103.48187256 133.77415466 C94.47523834 132.43983848 86.3968277 120.59836462 80.29046631 114.33079529 C79.520896 113.55026794 78.75132568 112.7697406 77.95843506 111.96556091 C77.2657251 111.25601257 76.57301514 110.54646423 75.85931396 109.81541443 C72.10960415 106.51757128 70.43913073 109.70323155 67.47920227 112.64187622 Z " fill="#ffffff" transform="translate(25.89312744140625,28.725845336914063)"/>
</svg>
