<?xml version="1.0" encoding="utf-8"?>
<!-- Generator: Adobe Illustrator 16.0.0, SVG Export Plug-In . SVG Version: 6.00 Build 0)  -->
<!DOCTYPE svg PUBLIC "-//W3C//DTD SVG 1.1//EN" "http://www.w3.org/Graphics/SVG/1.1/DTD/svg11.dtd">
<svg version="1.1" id="Layer_1" xmlns="http://www.w3.org/2000/svg" xmlns:xlink="http://www.w3.org/1999/xlink" x="0px" y="0px"
	 width="792px" height="612px" viewBox="0 0 792 612" enable-background="new 0 0 792 612" xml:space="preserve">
<polygon fill-rule="evenodd" clip-rule="evenodd" fill="#F9BE14" points="423.311,354.22 467.196,328.916 423.311,302.802 "/>
<path fill-rule="evenodd" clip-rule="evenodd" fill="#F9BE14" d="M468.784,228.079l-91.49-53.988c0,0-29.458-16.732-60.17,6.182
	c-24.013,17.916-22.254,45.745-22.254,45.745v38.547l55.604,31.991v44.097l-55.604-32.568v24.673c0,0,1.49,31.24,25.963,45.745
	c31.108,18.438,58.933,0.824,58.933,0.824l4.842-2.792l0.786-94.75l-51.103-29.26V226.56c0,0,0.734-7.645,8.654-10.715
	c5.372-2.082,13.6,3.297,13.6,3.297l137.003,77.472c1.945-5.285,3.32-11.238,3.671-17.845
	C499.193,241.543,468.784,228.079,468.784,228.079z"/>
<g>
	<path fill="#231F21" d="M160.833,425.997c-4.321,0-7.153,1.729-7.153,4.608c0,8.737,18.914,4.177,18.866,16.37
		c0,5.568-4.944,9.168-12.145,9.168c-4.896,0-9.697-2.111-12.865-5.136l1.728-3.312c3.121,2.977,7.393,4.704,11.185,4.704
		c4.849,0,7.873-1.968,7.873-5.232c0.048-8.977-18.866-4.224-18.866-16.273c0-5.28,4.657-8.641,11.617-8.641
		c3.888,0,7.873,1.248,10.657,3.12l-1.632,3.408C167.074,426.813,163.521,425.997,160.833,425.997z"/>
	<path fill="#231F21" d="M185.168,422.397l12.289,24.386l12.241-24.386h4.704V456h-3.552l-0.048-27.938l-12.241,24.386h-2.304
		l-12.193-24.386V456h-3.648v-33.603H185.168z"/>
	<path fill="#231F21" d="M245.841,447.407h-18.29L223.808,456h-4.081l15.073-33.603h3.984L253.81,456h-4.176L245.841,447.407z
		 M244.305,443.854l-7.632-17.281l-7.537,17.281H244.305z"/>
	<path fill="#231F21" d="M281.073,456l-7.057-10.753c-0.672,0.048-1.392,0.096-2.16,0.096h-8.929V456h-3.84v-33.603h12.769
		c8.401,0,13.25,4.128,13.25,11.28c0,5.521-2.736,9.313-7.585,10.85L285.441,456H281.073z M271.856,441.791
		c6.097,0,9.553-2.736,9.553-8.017c0-5.137-3.456-7.825-9.553-7.825h-8.929v15.842H271.856z"/>
	<path fill="#231F21" d="M315.009,422.397v3.552h-10.993V456h-3.84v-30.051H289.23v-3.552H315.009z"/>
	<path fill="#231F21" d="M356.192,422.397v3.552h-10.993V456h-3.841v-30.051h-10.944v-3.552H356.192z"/>
	<path fill="#231F21" d="M383.744,456l-7.057-10.753c-0.672,0.048-1.392,0.096-2.16,0.096h-8.929V456h-3.84v-33.603h12.769
		c8.4,0,13.249,4.128,13.249,11.28c0,5.521-2.736,9.313-7.584,10.85l7.92,11.473H383.744z M374.527,441.791
		c6.097,0,9.553-2.736,9.553-8.017c0-5.137-3.456-7.825-9.553-7.825h-8.929v15.842H374.527z"/>
	<path fill="#231F21" d="M417.68,447.407h-18.29L395.646,456h-4.08l15.073-33.603h3.984L425.648,456h-4.177L417.68,447.407z
		 M416.144,443.854l-7.633-17.281l-7.537,17.281H416.144z"/>
	<path fill="#231F21" d="M434.909,422.397l20.161,27.314v-27.314h3.793V456h-3.937l-20.162-27.267V456h-3.84v-33.603H434.909z"/>
	<path fill="#231F21" d="M478.829,425.997c-4.32,0-7.152,1.729-7.152,4.608c0,8.737,18.914,4.177,18.865,16.37
		c0,5.568-4.944,9.168-12.145,9.168c-4.896,0-9.697-2.111-12.865-5.136l1.729-3.312c3.12,2.977,7.393,4.704,11.185,4.704
		c4.849,0,7.873-1.968,7.873-5.232c0.048-8.977-18.866-4.224-18.866-16.273c0-5.28,4.656-8.641,11.617-8.641
		c3.889,0,7.873,1.248,10.657,3.12l-1.633,3.408C485.07,426.813,481.518,425.997,478.829,425.997z"/>
	<path fill="#231F21" d="M524.143,433.678c0,7.393-4.8,11.665-13.104,11.665h-8.785V456h-3.84v-33.603h12.625
		C519.343,422.397,524.143,426.525,524.143,433.678z M520.446,433.774c0-5.137-3.504-7.825-9.553-7.825h-8.641v15.842h8.641
		C516.942,441.791,520.446,439.055,520.446,433.774z"/>
	<path fill="#231F21" d="M562.543,439.198c0,9.457-7.777,16.945-17.569,16.945c-9.841,0-17.618-7.488-17.618-16.945
		c0-9.456,7.777-16.897,17.618-16.897C554.766,422.301,562.543,429.742,562.543,439.198z M531.244,439.198
		c0,7.441,6.24,13.441,13.729,13.441c7.488,0,13.633-6,13.633-13.441c0-7.44-6.145-13.345-13.633-13.345
		C537.484,425.854,531.244,431.758,531.244,439.198z"/>
	<path fill="#231F21" d="M591.533,456l-7.057-10.753c-0.672,0.048-1.392,0.096-2.16,0.096h-8.929V456h-3.84v-33.603h12.769
		c8.4,0,13.249,4.128,13.249,11.28c0,5.521-2.736,9.313-7.584,10.85l7.92,11.473H591.533z M582.316,441.791
		c6.097,0,9.553-2.736,9.553-8.017c0-5.137-3.456-7.825-9.553-7.825h-8.929v15.842H582.316z"/>
	<path fill="#231F21" d="M625.469,422.397v3.552h-10.993V456h-3.841v-30.051H599.69v-3.552H625.469z"/>
</g>
</svg>
