<?xml version="1.0" encoding="UTF-8"?>
<!DOCTYPE svg PUBLIC "-//W3C//DTD SVG 1.1//EN" "http://www.w3.org/Graphics/SVG/1.1/DTD/svg11.dtd">
<svg xmlns="http://www.w3.org/2000/svg" version="1.1" width="512px" height="512px" style="shape-rendering:geometricPrecision; text-rendering:geometricPrecision; image-rendering:optimizeQuality; fill-rule:evenodd; clip-rule:evenodd" xmlns:xlink="http://www.w3.org/1999/xlink">
<g><path style="opacity:0.963" fill="#ffffff" d="M 511.5,134.5 C 511.5,144.167 511.5,153.833 511.5,163.5C 500.059,218.435 466.392,249.269 410.5,256C 313.5,256.667 216.5,256.667 119.5,256C 108.046,251.916 104.546,244.082 109,232.5C 111.264,229.567 114.098,227.4 117.5,226C 214.833,225.667 312.167,225.333 409.5,225C 444.017,220.807 466.851,202.307 478,169.5C 485.533,138.101 477.366,111.601 453.5,90C 425.684,69.4076 396.351,67.0743 365.5,83C 361.102,86.3943 356.435,89.3943 351.5,92C 339.651,93.7544 332.984,88.7544 331.5,77C 331.656,73.1828 332.822,69.6828 335,66.5C 365.267,42.6463 399.1,35.813 436.5,46C 478.722,61.0444 503.722,90.5444 511.5,134.5 Z"/></g>
<g><path style="opacity:0.946" fill="#ffffff" d="M -0.5,186.5 C -0.5,182.833 -0.5,179.167 -0.5,175.5C 1.6467,171.189 4.98004,168.022 9.5,166C 19.5,165.333 29.5,165.333 39.5,166C 50.4725,171.584 52.9725,179.75 47,190.5C 44.6581,193.754 41.4915,195.588 37.5,196C 28.8333,196.667 20.1667,196.667 11.5,196C 5.81949,194.806 1.81949,191.64 -0.5,186.5 Z"/></g>
<g><path style="opacity:0.962" fill="#ffffff" d="M 89.5,165.5 C 145.834,165.333 202.168,165.5 258.5,166C 269.22,170.817 272.053,178.65 267,189.5C 264.635,192.869 261.468,195.036 257.5,196C 201.833,196.667 146.167,196.667 90.5,196C 78.7243,191.358 75.5576,183.191 81,171.5C 83.3218,168.605 86.1552,166.605 89.5,165.5 Z"/></g>
<g><path style="opacity:0.963" fill="#ffffff" d="M -0.5,306.5 C -0.5,302.833 -0.5,299.167 -0.5,295.5C 1.6467,291.189 4.98004,288.022 9.5,286C 93.5,285.333 177.5,285.333 261.5,286C 295.753,291.587 320.253,310.087 335,341.5C 349.654,383.252 340.821,419.086 308.5,449C 279.017,471.133 247.017,475.467 212.5,462C 205.676,459.091 199.342,455.424 193.5,451C 186.498,445.214 184.665,438.047 188,429.5C 194.527,421.244 202.36,419.744 211.5,425C 237.158,442.999 262.825,442.999 288.5,425C 312.715,401.921 317.215,375.421 302,345.5C 291.737,329.613 277.237,320.113 258.5,317C 176.167,316.667 93.8333,316.333 11.5,316C 5.81949,314.806 1.81949,311.64 -0.5,306.5 Z"/></g>
<g><path style="opacity:0.985" fill="#ffffff" d="M 84.5,345.5 C 118.502,345.333 152.502,345.5 186.5,346C 194.915,350.348 197.748,357.181 195,366.5C 193.5,370.667 190.667,373.5 186.5,375C 152.5,375.667 118.5,375.667 84.5,375C 75.5253,369.848 73.0253,362.348 77,352.5C 79.0147,349.588 81.5147,347.255 84.5,345.5 Z"/></g>
</svg>
