<?xml version="1.0" encoding="UTF-8"?>
<!DOCTYPE svg PUBLIC "-//W3C//DTD SVG 1.1//EN" "http://www.w3.org/Graphics/SVG/1.1/DTD/svg11.dtd">
<svg xmlns="http://www.w3.org/2000/svg" version="1.1" width="512px" height="512px" style="shape-rendering:geometricPrecision; text-rendering:geometricPrecision; image-rendering:optimizeQuality; fill-rule:evenodd; clip-rule:evenodd" xmlns:xlink="http://www.w3.org/1999/xlink">
<g><path style="opacity:0.974" fill="#ffffff" d="M 291.5,47.5 C 294.187,47.3359 296.854,47.5026 299.5,48C 301.333,48.5 302.5,49.6667 303,51.5C 303.667,187.5 303.667,323.5 303,459.5C 301.471,462.516 298.971,463.849 295.5,463.5C 293.366,463.485 291.366,462.985 289.5,462C 232.007,422.419 174.34,383.086 116.5,344C 89.5,343.667 62.5,343.333 35.5,343C 33.6667,342.5 32.5,341.333 32,339.5C 31.0084,282.751 31.3418,226.084 33,169.5C 33.7504,168.874 34.5838,168.374 35.5,168C 62.5,167.667 89.5,167.333 116.5,167C 175.011,127.304 233.345,87.4703 291.5,47.5 Z M 286.5,71.5 C 287.666,193.999 287.833,316.666 287,439.5C 234,403.167 181,366.833 128,330.5C 127.333,280.5 127.333,230.5 128,180.5C 181.012,144.304 233.845,107.97 286.5,71.5 Z M 47.5,183.5 C 68.8333,183.5 90.1667,183.5 111.5,183.5C 111.5,231.5 111.5,279.5 111.5,327.5C 90.1667,327.5 68.8333,327.5 47.5,327.5C 47.5,279.5 47.5,231.5 47.5,183.5 Z"/></g>
<g><path style="opacity:0.923" fill="#ffffff" d="M 422.5,134.5 C 430.399,135.648 433.233,139.981 431,147.5C 419.957,164.419 408.791,181.253 397.5,198C 393.5,200 389.5,200 385.5,198C 377.333,189.833 369.167,181.667 361,173.5C 351.608,186.56 342.608,199.894 334,213.5C 321.667,218.167 317.333,214.167 321,201.5C 331.833,185.333 342.667,169.167 353.5,153C 357.5,151 361.5,151 365.5,153C 373.667,161.167 381.833,169.333 390,177.5C 399.392,164.44 408.392,151.106 417,137.5C 418.876,136.391 420.709,135.391 422.5,134.5 Z"/></g>
<g><path style="opacity:0.92" fill="#ffffff" d="M 370.5,231.5 C 374.308,231.163 377.974,231.663 381.5,233C 395.787,243.127 410.453,252.627 425.5,261.5C 440.839,256.498 456.172,251.498 471.5,246.5C 479.364,248.246 481.864,252.912 479,260.5C 477.421,262.041 475.587,263.208 473.5,264C 457.163,269.78 440.663,274.946 424,279.5C 421.7,279.506 419.534,279.006 417.5,278C 403.213,267.873 388.547,258.373 373.5,249.5C 357.999,254.612 342.499,259.612 327,264.5C 321.963,263.628 319.129,260.628 318.5,255.5C 318.833,252.99 319.833,250.823 321.5,249C 337.894,243.038 354.227,237.204 370.5,231.5 Z"/></g>
<g><path style="opacity:0.923" fill="#ffffff" d="M 323.5,295.5 C 327.257,295.071 330.757,295.737 334,297.5C 342.608,311.106 351.608,324.44 361,337.5C 369.167,329.333 377.333,321.167 385.5,313C 389.5,311 393.5,311 397.5,313C 408.333,329.167 419.167,345.333 430,361.5C 433.833,373.667 429.667,377.833 417.5,374C 408.704,360.24 399.538,346.74 390,333.5C 381.833,341.667 373.667,349.833 365.5,358C 361.5,360 357.5,360 353.5,358C 342.209,341.253 331.043,324.419 320,307.5C 318.593,302.556 319.759,298.556 323.5,295.5 Z"/></g>
</svg>
