<?xml version="1.0" encoding="UTF-8"?>
<svg version="1.1" xmlns="http://www.w3.org/2000/svg" width="512" height="512">
<path d="M0 0 C3.09997636 2.30685168 3.92577334 3.4984154 4.49879456 7.37059021 C4.51891314 8.72794947 4.51724509 10.08573921 4.49829102 11.44311523 C4.50380981 12.18669281 4.50932861 12.93027039 4.51501465 13.69638062 C4.52432601 15.30762023 4.52444689 16.91893345 4.51642036 18.53017998 C4.50379029 21.08202217 4.51507936 23.6327827 4.53245544 26.18458557 C4.55916696 30.6822852 4.56475082 35.17971986 4.56335449 39.67749023 C4.5611268 46.87293014 4.575261 54.06804179 4.61894035 61.26335335 C4.62877273 63.77449435 4.62006424 66.28511906 4.61024475 68.79624939 C4.61639017 70.33999976 4.6233023 71.88374734 4.63110352 73.42749023 C4.62338425 74.12323654 4.61566498 74.81898285 4.60771179 75.53581238 C4.65244037 79.83148884 5.23746955 82.65795253 8 86 C10.86057382 87.21435126 13.77484726 87.14848403 16.86035156 87.20532227 C18.30139252 87.2352401 18.30139252 87.2352401 19.77154541 87.26576233 C20.80084167 87.28247482 21.83013794 87.29918732 22.890625 87.31640625 C24.48025055 87.3475779 24.48025055 87.3475779 26.10198975 87.37937927 C29.48459438 87.44472186 32.86727612 87.50368881 36.25 87.5625 C38.54427878 87.60569975 40.83854979 87.64931451 43.1328125 87.69335938 C48.75512702 87.8003876 54.3775181 87.90218239 60 88 C59.99111755 86.95652405 59.98223511 85.9130481 59.9730835 84.83795166 C59.89203117 75.00887419 59.83205072 65.17986443 59.79275131 55.35052872 C59.77186786 50.2970208 59.74353629 45.24378245 59.69824219 40.19042969 C59.65481161 35.31452532 59.6308686 30.4388804 59.62049103 25.56279755 C59.61309465 23.70161606 59.59865134 21.84044892 59.57707977 19.97937775 C59.54808256 17.37428496 59.54404241 14.77026702 59.54589844 12.16503906 C59.53151733 11.39395813 59.51713623 10.6228772 59.50231934 9.82843018 C59.52905993 6.36449469 59.73128553 4.36957039 61.79400635 1.53265381 C64.45581042 -0.3166825 66.63760838 -0.74374241 69.87162781 -0.58023071 C72.50978774 0.13897687 73.79798145 1.24816198 75.80395508 3.09619141 C76.49897125 3.73204163 77.19398743 4.36789185 77.9100647 5.02301025 C78.59974335 5.67541687 79.289422 6.32782349 80 7 C80.61628265 7.58231384 81.23256531 8.16462769 81.86752319 8.7645874 C83.7229019 10.54391855 85.55812993 12.34159624 87.38671875 14.1484375 C88.38406792 15.13367905 88.38406792 15.13367905 89.40156555 16.13882446 C90.79365262 17.51719674 92.18427897 18.89704573 93.57348633 20.27832031 C94.98375328 21.67702369 96.39848701 23.07123759 97.81762695 24.4609375 C99.89232735 26.49274941 101.95325232 28.53769491 104.01171875 30.5859375 C104.63890305 31.19561371 105.26608734 31.80528992 105.91227722 32.43344116 C112.27887366 38.83137092 116.57074108 45.02230528 116.56648254 54.27076721 C116.54067612 55.12114059 116.51486969 55.97151398 116.48828125 56.84765625 C116.47766914 58.19361122 116.47766914 58.19361122 116.46684265 59.5667572 C116.43911714 62.39956261 116.37642402 65.23030414 116.3125 68.0625 C116.28738873 69.99671601 116.26458055 71.93096336 116.24414062 73.86523438 C116.18936272 78.5776038 116.10324675 83.28845348 116 88 C116.94875 88.103125 117.8975 88.20625 118.875 88.3125 C122 89 122 89 124 92 C124.23205788 94.64065231 124.35195433 97.17320676 124.37109375 99.81640625 C124.38012222 100.58750229 124.3891507 101.35859833 124.39845276 102.15306091 C124.41296155 103.78795493 124.42184357 105.4229071 124.42553711 107.05786133 C124.43734402 109.52984378 124.48643961 111.99925433 124.53710938 114.47070312 C124.54658504 116.06509209 124.5538146 117.65949629 124.55859375 119.25390625 C124.57812607 119.98033829 124.59765839 120.70677032 124.61778259 121.45521545 C124.56312703 127.84285264 122.850146 132.87856834 119 138 C116.51719646 140.16137724 113.85882174 142.06059874 111.19369507 143.98965454 C97.49469779 154.24754389 85.37604963 165.17947 82.43274772 182.74295723 C80.4280037 199.59505737 80.91914921 216.65864509 81.41321436 233.58924373 C81.6480862 241.89104379 81.67946957 250.19042131 81.70130913 258.49506672 C81.74507568 273.31103518 81.93643643 288.12104798 82.22753906 302.93408203 C82.50882807 317.26714923 82.729035 331.5988228 82.86132812 345.93408203 C82.86953534 346.82043726 82.87774256 347.70679249 82.88619848 348.62000696 C82.95890025 356.57613801 83.02450046 364.53232564 83.08995128 372.48851895 C83.13235186 377.64035376 83.17580629 382.79217898 83.21981812 387.94400024 C83.2268444 388.78104274 83.23387069 389.61808524 83.24110989 390.48049267 C83.3392851 402.01937599 83.49438685 413.55616022 83.69365171 425.09371886 C83.77112989 429.70393614 83.83797158 434.31432074 83.90438701 438.92470913 C83.96709357 443.18636696 84.0474582 447.44717902 84.14213017 451.70823994 C84.20796756 454.91213386 84.24686896 458.11638284 84.29019165 461.32064819 C84.33662038 462.99602852 84.33662038 462.99602852 84.38398707 464.70525491 C84.511187 478.80001297 79.15189693 489.54898728 69.6875 499.75 C59.12895319 509.74291038 47.58172077 512.51439781 33.46972656 512.41967773 C19.34733761 512.00889743 8.27134274 506.162881 -1.40625 495.9375 C-10.01578575 485.47100556 -12.5024114 474.87388269 -12.16993713 461.56115723 C-12.15259472 460.3433694 -12.13525231 459.12558158 -12.11738437 457.87089109 C-12.07764622 455.21293213 -12.03232298 452.55577216 -11.97741127 449.8981514 C-11.88832616 445.57121517 -11.82147707 441.2440987 -11.75820923 436.91671753 C-11.68918849 432.24967391 -11.61909742 427.58266625 -11.54226124 422.91574383 C-11.35256684 411.32102403 -11.22205152 399.7265968 -11.12644958 388.1307373 C-11.11941783 387.28911389 -11.11238607 386.44749048 -11.10514123 385.58036333 C-11.04746839 378.65031139 -10.99228402 371.72024012 -10.93849857 364.79015696 C-10.89008729 358.5550699 -10.83957632 352.32000491 -10.78588867 346.08496094 C-10.77826423 345.19636885 -10.77063978 344.30777676 -10.76278429 343.39225763 C-10.63633819 329.05168683 -10.39834329 314.71495739 -10.12101687 300.37660676 C-9.83804042 285.59783914 -9.68792146 270.82170493 -9.65396923 256.04025793 C-9.63108374 247.7619338 -9.54885869 239.49353085 -9.31167793 231.21833801 C-6.93940679 192.04825414 -6.93940679 192.04825414 -22.85959452 157.98218679 C-28.4745493 152.18854049 -34.6487478 146.96034362 -41.33786619 142.44203472 C-46.97000444 138.56855953 -51.0584475 133.66000216 -52.44614756 126.79189306 C-52.6576921 124.71439398 -52.6876813 122.69754166 -52.6628418 120.60961914 C-52.67320969 119.82457504 -52.68357758 119.03953094 -52.69425964 118.23069763 C-52.7211118 115.66496772 -52.71171533 113.10097369 -52.69921875 110.53515625 C-52.70513677 108.73351064 -52.71238729 106.93186897 -52.72090149 105.13023376 C-52.7327438 101.36534034 -52.72613793 97.60103952 -52.70678711 93.83618164 C-52.68391179 89.03327984 -52.71068445 84.23214869 -52.75184917 79.42942142 C-52.77753746 75.71191082 -52.77481734 71.99481767 -52.76395607 68.27725029 C-52.76247849 66.5075768 -52.7700531 64.73786985 -52.78720665 62.96827888 C-52.89379913 49.84308983 -51.1552336 42.46887629 -42.04589844 32.57592773 C-40.57741603 31.10142696 -39.0981391 29.63761389 -37.609375 28.18359375 C-36.43063812 27.00978905 -36.43063812 27.00978905 -35.22808838 25.81227112 C-33.58217584 24.17670258 -31.93153548 22.54587897 -30.27636719 20.91967773 C-27.73410383 18.42188187 -25.20579363 15.91061032 -22.6796875 13.39648438 C-21.07369538 11.80390185 -19.46695153 10.21207694 -17.859375 8.62109375 C-17.10106384 7.87016953 -16.34275269 7.1192453 -15.5614624 6.3455658 C-14.86023254 5.65717117 -14.15900269 4.96877655 -13.43652344 4.25952148 C-12.51102692 3.34879128 -12.51102692 3.34879128 -11.5668335 2.41966248 C-8.27994632 -0.55849085 -4.24357582 -0.8727354 0 0 Z M76 29 C76 48.47 76 67.94 76 88 C83.92 88 91.84 88 100 88 C100.04600738 83.39159384 100.08580328 78.78399025 100.10986328 74.17553711 C100.11989726 72.60910333 100.13352754 71.04268817 100.15087891 69.47631836 C100.17524225 67.21984247 100.18650916 64.96361506 100.1953125 62.70703125 C100.20563507 62.01100296 100.21595764 61.31497467 100.22659302 60.59785461 C100.22786026 55.05860279 99.47880184 51.72524069 95.86108398 47.50463867 C94.99813721 46.6510376 94.13519043 45.79743652 93.24609375 44.91796875 C92.55472069 44.22940544 92.55472069 44.22940544 91.84938049 43.52693176 C90.88038517 42.5646256 89.90781507 41.60590704 88.93188477 40.65063477 C87.43167914 39.18180086 85.94261215 37.70235854 84.45507812 36.22070312 C80.69468499 31.68296331 80.69468499 31.68296331 76 29 Z M-22.99267578 38.75244141 C-24.48675412 40.23683994 -25.99114193 41.71023161 -27.49609375 43.18359375 C-28.44597247 44.1269401 -29.39521225 45.07093032 -30.34375 46.015625 C-31.21193359 46.87446289 -32.08011719 47.73330078 -32.97460938 48.61816406 C-36.37710871 52.6194639 -36.12820823 56.29443338 -36.14526367 61.43334961 C-36.15164352 62.73827866 -36.15802338 64.0432077 -36.16459656 65.38768005 C-36.16612525 66.80923424 -36.1672392 68.23078893 -36.16796875 69.65234375 C-36.17118341 71.1143853 -36.17454764 72.57642653 -36.17805481 74.03846741 C-36.18403724 77.10076646 -36.18589559 80.16303732 -36.18530273 83.2253418 C-36.18520109 87.14383504 -36.19885954 91.06214718 -36.21607494 94.9805975 C-36.22720771 97.99952521 -36.22922156 101.01840929 -36.22869301 104.03735542 C-36.22987096 105.48180326 -36.23428234 106.92625229 -36.24202538 108.37067986 C-36.25185174 110.392848 -36.24767614 112.41506943 -36.24291992 114.43725586 C-36.24434494 115.58657089 -36.24576996 116.73588593 -36.24723816 117.92002869 C-35.82782149 123.14491516 -34.18052813 126.20077609 -30.48413086 129.84057617 C-29.76676254 130.5544902 -29.04939423 131.26840424 -28.31028748 132.00395203 C-27.14929283 133.1370153 -27.14929283 133.1370153 -25.96484375 134.29296875 C-25.1709877 135.08020828 -24.37713165 135.86744781 -23.55921936 136.67854309 C-21.02564802 139.18872939 -18.48212555 141.68852442 -15.9375 144.1875 C-13.39106978 146.69889971 -10.84677847 149.21241467 -8.30506897 151.72859192 C-6.7234414 153.29320442 -5.13874828 154.85472509 -3.55076599 156.41288757 C-2.83654984 157.11734512 -2.12233368 157.82180267 -1.38647461 158.54760742 C-0.43954994 159.47762825 -0.43954994 159.47762825 0.52650452 160.42643738 C3.13962231 163.21701565 3.12661217 165.18397674 3.13307858 168.90058041 C3.13731962 169.94279749 3.14156067 170.98501457 3.14593023 172.05881399 C3.14535103 173.78974722 3.14535103 173.78974722 3.14476013 175.5556488 C3.1500504 177.3841688 3.1500504 177.3841688 3.15544754 179.2496286 C3.16430597 182.64435811 3.16869978 186.03904195 3.17129052 189.43377864 C3.17517785 193.09111965 3.18481584 196.7484457 3.19384766 200.40577698 C3.2088036 206.74852126 3.22034077 213.09126435 3.22979546 219.43401909 C3.24366101 228.61663682 3.26484894 237.79922695 3.28822399 246.98182488 C3.3261696 261.89469638 3.36112436 276.8075729 3.39282227 291.72045898 C3.39472276 292.613627 3.39662325 293.50679501 3.39858133 294.42702872 C3.42538259 307.08731532 3.44926261 319.74760576 3.47196633 332.40790028 C3.47356363 333.29833958 3.47516094 334.18877887 3.47680664 335.10620117 C3.47840011 335.99555496 3.47999357 336.88490875 3.48163532 337.80121266 C3.50843151 352.6463222 3.54284582 367.49140256 3.58346039 382.33648068 C3.60820085 391.49107424 3.62654686 400.64563644 3.636616 409.80025811 C3.64402474 416.08067826 3.65857779 422.36105636 3.67868023 428.64144861 C3.69003658 432.26199274 3.69820799 435.88246914 3.69767189 439.50303268 C3.69716197 443.4359119 3.71203166 447.36865084 3.72825623 451.30149841 C3.72563937 452.43537741 3.72302252 453.5692564 3.72032636 454.73749536 C3.79256836 465.97850233 4.80182575 475.99077125 12 485 C19.17282729 492.04024268 25.89605407 495.09228241 35.875 495.4375 C44.63804606 495.22193844 51.95101453 492.90170261 58.40234375 486.81640625 C67.6054182 476.35325315 68.31110521 464.76819064 68.23136902 451.34187317 C68.23222246 450.11305331 68.2330759 448.88423346 68.2339552 447.61817664 C68.23445983 444.23791185 68.22612642 440.85788245 68.2140609 437.47765362 C68.20329203 433.82054019 68.20430827 430.16342847 68.20413208 426.50630188 C68.20253679 420.17842374 68.19446911 413.85058147 68.1826992 407.52271461 C68.16477066 397.51794799 68.16873667 387.51324383 68.17634583 377.50846863 C68.17870054 374.08079629 68.18094036 370.65312389 68.18316364 367.22545147 C68.18401044 365.940856 68.18401044 365.940856 68.18487435 364.63030911 C68.19105828 354.89880344 68.1934158 345.16729856 68.19360352 335.43579102 C68.19362695 334.54692558 68.19365039 333.65806015 68.19367454 332.74225941 C68.19342383 318.32151103 68.17428693 303.90083446 68.15000685 289.48010937 C68.12568743 274.65842572 68.12810907 259.83690239 68.15368825 245.01522082 C68.16847816 235.88055352 68.16147801 226.74642533 68.12638716 217.61181106 C68.10421027 211.3552356 68.10746179 205.09899892 68.13068654 198.84242848 C68.14328464 195.23402282 68.14451172 191.62655507 68.11510277 188.01822662 C68.08347358 184.10410608 68.10604363 180.19135003 68.13371277 176.2771759 C68.11584959 175.14069746 68.09798641 174.00421902 68.07958192 172.83330184 C68.18329229 166.07940046 69.27642278 162.45898006 74.14524919 157.67877406 C74.75731696 157.12477862 75.36938472 156.57078318 76 156 C77.21234091 154.77396655 78.42104657 153.5443173 79.62451172 152.30957031 C80.89065002 151.06346121 82.15911567 149.81971322 83.4296875 148.578125 C84.815384 147.20991877 86.20079259 145.8414209 87.5859375 144.47265625 C89.74225483 142.3474539 91.90083906 140.22470838 94.06445312 138.10693359 C96.17207734 136.04151878 98.27023761 133.96686855 100.3671875 131.890625 C101.01815399 131.25827942 101.66912048 130.62593384 102.33981323 129.97442627 C102.93778717 129.37990662 103.53576111 128.78538696 104.15185547 128.17285156 C104.67923309 127.65515198 105.20661072 127.13745239 105.74996948 126.60406494 C108.017984 123.69370193 108.12485528 120.48089659 108.09765625 116.890625 C108.09443359 116.13652344 108.09121094 115.38242188 108.08789062 114.60546875 C108.07951172 113.82816406 108.07113281 113.05085938 108.0625 112.25 C108.05573242 111.06083984 108.05573242 111.06083984 108.04882812 109.84765625 C108.03708565 107.89840492 108.01915146 105.94919262 108 104 C106.72737305 103.99635437 105.45474609 103.99270874 104.14355469 103.98895264 C92.13751963 103.95197662 80.13174044 103.89417503 68.12590027 103.81609726 C61.95387728 103.77662489 55.78199692 103.74443501 49.60986328 103.72900391 C43.6509748 103.71383608 37.69247843 103.6793874 31.73376465 103.63169098 C29.46288465 103.61687865 27.19194866 103.60895907 24.92102051 103.60811615 C21.73468448 103.6057444 18.54943024 103.57864634 15.36328125 103.54589844 C14.42891739 103.5509288 13.49455353 103.55595917 12.53187561 103.56114197 C5.60535908 103.45134108 0.43172291 101.77099826 -4.98828125 97.39453125 C-11.77730838 89.28374663 -12.45264711 80.81516619 -12.51171875 70.52734375 C-12.52966995 69.3636879 -12.54762115 68.20003204 -12.56611633 67.00111389 C-12.61995617 63.31327858 -12.65403119 59.62557076 -12.6875 55.9375 C-12.72069622 53.42511257 -12.75518799 50.91274191 -12.79101562 48.40039062 C-12.87566752 42.26704147 -12.94412814 36.13367526 -13 30 C-16.15875795 30 -20.63404075 36.4030893 -22.99267578 38.75244141 Z " fill="#ffffff" transform="translate(124,0)"/>
<path d="M0 0 C1.42187705 1.19894413 2.81616127 2.43106397 4.1875 3.6875 C5.09113281 4.51121094 5.99476563 5.33492187 6.92578125 6.18359375 C16.1683105 15.00089161 22.62007958 24.76495774 27.1875 36.6875 C27.58195313 37.71488281 27.97640625 38.74226563 28.3828125 39.80078125 C34.91913659 59.98111053 32.52456759 82.22707852 23.375 101.0625 C20.26392325 107.14961026 16.68712369 112.52290729 12.1875 117.6875 C11.74664062 118.24695313 11.30578125 118.80640625 10.8515625 119.3828125 C7.9677929 123.03803639 4.88463899 125.89410609 1.1875 128.6875 C0.5275 128.6875 -0.1325 128.6875 -0.8125 128.6875 C-0.95885063 157.92828821 -1.04365901 187.16871935 -1.04310168 216.40988581 C-1.04308988 219.86562387 -1.04360029 223.32136166 -1.04443359 226.77709961 C-1.0445907 227.46504621 -1.04474781 228.1529928 -1.04490969 228.86178627 C-1.04869438 239.98672932 -1.09473885 251.11111365 -1.15652815 262.23586849 C-1.21903156 273.65942158 -1.23493184 285.08217235 -1.21059489 296.50591391 C-1.19839863 302.91928572 -1.20715712 309.33106884 -1.2664566 315.7442112 C-1.32164771 321.78518285 -1.32027948 327.82354451 -1.27619362 333.86458206 C-1.26989388 336.07726788 -1.28396986 338.29012377 -1.32034111 340.50251961 C-1.95231039 352.65016278 -1.95231039 352.65016278 2.80457306 363.32715416 C5.66421919 366.15627651 8.91668757 368.35518703 12.1875 370.6875 C28.27060441 388.99701362 32.5898086 410.16631476 31.40625 433.80419922 C30.13562725 450.55202808 22.45475139 466.37368574 11.1875 478.6875 C10.59710938 479.36941406 10.00671875 480.05132812 9.3984375 480.75390625 C2.37881232 488.38588171 -8.25209986 496.53493041 -18.7421875 497.11328125 C-21.79617327 496.48519738 -22.87397505 495.09265741 -24.8125 492.6875 C-25.33148193 489.8147583 -25.33148193 489.8147583 -25.35839844 486.45019531 C-25.37811707 485.18919006 -25.39783569 483.92818481 -25.41815186 482.62896729 C-25.41981488 481.25785364 -25.42104582 479.88673941 -25.421875 478.515625 C-25.43685931 477.10884701 -25.45358699 475.70208661 -25.47198486 474.29534912 C-25.51564355 470.59970281 -25.53565381 466.90429379 -25.55072021 463.20843506 C-25.57029694 459.43438698 -25.6122662 455.66059496 -25.65234375 451.88671875 C-25.72762954 444.48704803 -25.77793045 437.08748484 -25.8125 429.6875 C-29.33742241 427.779695 -32.88449737 425.91740932 -36.4375 424.0625 C-37.43652344 423.52109375 -38.43554688 422.9796875 -39.46484375 422.421875 C-45.08412664 419.34717909 -45.08412664 419.34717909 -51.27246094 419.22998047 C-52.11067383 419.71096191 -52.94888672 420.19194336 -53.8125 420.6875 C-54.86099121 421.16340576 -54.86099121 421.16340576 -55.93066406 421.64892578 C-56.55682617 421.9736084 -57.18298828 422.29829102 -57.828125 422.6328125 C-58.86839844 423.16455078 -58.86839844 423.16455078 -59.9296875 423.70703125 C-60.98542969 424.25423828 -60.98542969 424.25423828 -62.0625 424.8125 C-69.54433391 428.6875 -69.54433391 428.6875 -71.8125 428.6875 C-71.80583817 429.42364029 -71.79917633 430.15978058 -71.79231262 430.91822815 C-71.73204651 437.87673391 -71.68644704 444.83520035 -71.65706348 451.79390049 C-71.64144885 455.37093357 -71.6202884 458.94774986 -71.58618164 462.5246582 C-71.55343682 465.98060659 -71.53561542 469.43634727 -71.52786827 472.89243889 C-71.51967836 474.84385408 -71.49628322 476.79518644 -71.47261047 478.74647522 C-71.47140859 485.11526563 -71.5109891 490.14050015 -74.8125 495.6875 C-78.17916108 497.37083054 -81.19851642 497.35866838 -84.8125 496.6875 C-103.66536274 488.69494833 -117.22001116 471.15583456 -124.8125 452.6875 C-132.03155593 433.44344361 -131.14825587 410.34620609 -123.08203125 391.546875 C-119.08003264 382.76294865 -113.88186576 372.35564549 -105.40797615 367.23427677 C-101.61179426 364.65037001 -98.48921093 362.15522701 -97.22963476 357.56199527 C-96.26613498 350.90500096 -96.49878705 344.1684952 -96.58544922 337.46069336 C-96.57840294 335.18351544 -96.56696233 332.90634753 -96.5514679 330.62921143 C-96.5219163 324.46198342 -96.55371387 318.2964265 -96.59663153 312.12933421 C-96.63105307 305.67906924 -96.60891269 299.22900282 -96.59280396 292.77870178 C-96.57338234 281.9571251 -96.58872037 271.13619067 -96.63085938 260.31469727 C-96.67415327 249.17205355 -96.69637775 238.02969383 -96.69042969 226.88696289 C-96.68989005 225.85551569 -96.68989005 225.85551569 -96.6893395 224.80323117 C-96.68740512 221.35334614 -96.68505824 217.90346154 -96.68250632 214.45357692 C-96.6618918 185.86468298 -96.7142183 157.27621872 -96.8125 128.6875 C-97.40804688 128.40519531 -98.00359375 128.12289062 -98.6171875 127.83203125 C-111.64951159 121.03759894 -119.73523931 105.88144639 -124.8125 92.6875 C-125.46412109 91.01880859 -125.46412109 91.01880859 -126.12890625 89.31640625 C-132.64699162 69.30792817 -130.05730722 46.96027815 -121 28.3125 C-117.89165425 22.22447482 -114.29455254 16.86320352 -109.8125 11.6875 C-109.21566406 10.89472656 -108.61882812 10.10195313 -108.00390625 9.28515625 C-99.80385931 -0.43504199 -88.55237258 -6.85794315 -76.8125 -11.3125 C-75.70132813 -11.745625 -74.59015625 -12.17875 -73.4453125 -12.625 C-48.83411721 -20.66130867 -20.61845553 -15.28926471 0 0 Z M-94.5625 19.875 C-107.99816067 34.31582232 -112.44419316 50.66905312 -112.15234375 69.9453125 C-111.47229148 87.01716421 -102.84751772 100.94049979 -90.8125 112.6875 C-88.70783615 114.40175403 -86.58504327 116.0014784 -84.34375 117.53125 C-82.8125 118.6875 -82.8125 118.6875 -81.8125 120.6875 C-81.70716614 122.04456152 -81.66171345 123.40652752 -81.64755249 124.7675972 C-81.63631096 125.62682761 -81.62506943 126.48605803 -81.61348724 127.37132573 C-81.60616829 128.32090555 -81.59884933 129.27048537 -81.59130859 130.24884033 C-81.57415173 131.7556682 -81.57415173 131.7556682 -81.55664825 133.29293704 C-81.51968627 136.68126195 -81.49018627 140.06960811 -81.4609375 143.45800781 C-81.43667834 145.87890853 -81.41218763 148.29980693 -81.38748169 150.72070312 C-81.17067561 172.85721311 -81.04948308 194.99461929 -80.95318604 217.13194656 C-80.94005875 220.09675456 -80.92668378 223.06156132 -80.91308594 226.02636719 C-80.90971678 226.7632363 -80.90634763 227.50010542 -80.90287638 228.2593039 C-80.8467875 240.1746004 -80.73477996 252.08872254 -80.60107255 264.00337306 C-80.46483109 276.24601556 -80.38597106 288.48804916 -80.36050224 300.73142886 C-80.34464353 307.60188602 -80.30322975 314.47012804 -80.19598389 321.33982086 C-80.09495537 327.81148157 -80.07085537 334.28060236 -80.0975914 340.75302124 C-80.0950725 343.12100147 -80.06708245 345.48912129 -80.01095963 347.85643768 C-79.58810437 366.65541407 -79.58810437 366.65541407 -85.12231445 373.13314056 C-88.21298302 376.22276562 -91.54923363 378.85011569 -95.09950256 381.38837194 C-102.03858173 386.65093231 -105.7708637 394.76587579 -108.8125 402.6875 C-109.29396484 403.86119141 -109.29396484 403.86119141 -109.78515625 405.05859375 C-114.89324692 419.90769455 -112.86336052 437.52647995 -106.52734375 451.52734375 C-102.54415367 459.43824773 -97.07497058 468.87197283 -88.8125 472.6875 C-88.82035522 471.70817253 -88.82035522 471.70817253 -88.82836914 470.70906067 C-88.87506806 463.91152289 -88.86604563 457.11567595 -88.82470703 450.31811523 C-88.81659765 447.78166232 -88.82268189 445.24512262 -88.84326172 442.70874023 C-88.87039176 439.06117806 -88.84642692 435.41697352 -88.8125 431.76953125 C-88.8319165 430.63602737 -88.85133301 429.5025235 -88.87133789 428.33467102 C-88.73112857 420.67504615 -88.73112857 420.67504615 -86.20022583 417.95426941 C-84.1257141 416.62694896 -82.08047384 415.64184907 -79.8125 414.6875 C-78.69601074 414.07608154 -77.57952148 413.46466309 -76.42919922 412.8347168 C-73.48236191 411.32393591 -70.53390031 409.81721743 -67.57568359 408.32885742 C-65.67858567 407.37049673 -63.790694 406.39538212 -61.90234375 405.41992188 C-60.68282145 404.80363804 -59.46278655 404.18836725 -58.2421875 403.57421875 C-56.60612549 402.74216919 -56.60612549 402.74216919 -54.93701172 401.89331055 C-50.96792362 400.36156136 -48.07373662 399.86943502 -43.99520874 401.34495544 C-41.91008334 402.2751547 -39.88713322 403.28661959 -37.859375 404.3359375 C-36.74722626 404.89482162 -36.74722626 404.89482162 -35.61260986 405.46499634 C-34.05334995 406.2513251 -32.49696928 407.04338651 -30.94335938 407.84082031 C-28.56214023 409.0626846 -26.17273278 410.26711826 -23.78125 411.46875 C-22.26511991 412.23598188 -20.74947728 413.00417794 -19.234375 413.7734375 C-18.5198114 414.13496918 -17.8052478 414.49650085 -17.06903076 414.86898804 C-14.32266394 416.28207814 -12.01072705 417.48927295 -9.8125 419.6875 C-9.5340271 421.94009399 -9.5340271 421.94009399 -9.49365234 424.77978516 C-9.47378265 425.84073395 -9.45391296 426.90168274 -9.43344116 427.99478149 C-9.42188995 429.14376923 -9.41033875 430.29275696 -9.3984375 431.4765625 C-9.37907135 432.65012299 -9.3597052 433.82368347 -9.3397522 435.0328064 C-9.27982336 438.79262961 -9.23351754 442.55248323 -9.1875 446.3125 C-9.1493325 448.85678442 -9.11028151 451.40105575 -9.0703125 453.9453125 C-8.97411095 460.19259241 -8.88910262 466.43995072 -8.8125 472.6875 C2.64394228 465.29981986 10.07504357 452.59000535 13.32421875 439.4296875 C16.74105654 422.93084634 14.45980763 405.82137153 5.9375 391.26953125 C2.2209444 385.78595257 -2.04791911 380.4776463 -7.64202881 376.85529804 C-11.81841238 373.98131907 -15.07410488 371.36144592 -16.44395447 366.40081763 C-17.49732606 359.26794189 -17.24397779 352.05518937 -17.140625 344.8659668 C-17.14571135 342.42927155 -17.15557052 339.9925823 -17.16983032 337.55592346 C-17.19176136 331.64072656 -17.16289919 325.7270852 -17.11014116 319.81220498 C-17.05087353 312.92036889 -17.0499291 306.02888665 -17.05121589 299.1368408 C-17.05152968 286.84110799 -16.99919246 274.5461663 -16.91699219 262.25073242 C-16.83730664 250.3245027 -16.79488338 238.39891224 -16.79394531 226.47241211 C-16.79388237 225.73709146 -16.79381943 225.0017708 -16.79375458 224.24416771 C-16.79369667 223.51010524 -16.79363876 222.77604278 -16.7935791 222.01973599 C-16.79228862 208.42884988 -16.75816318 194.83822587 -16.70750904 181.24743896 C-16.69028426 176.44465164 -16.68243985 171.64190009 -16.67736816 166.83908653 C-16.66975013 160.37836823 -16.63388277 153.91815635 -16.57926559 147.45766258 C-16.56304361 145.08450078 -16.55530164 142.71126393 -16.55656815 140.33804703 C-16.55678219 137.1035437 -16.52632876 133.87076043 -16.48779297 130.63652039 C-16.49485386 129.69295061 -16.50191475 128.74938084 -16.50918961 127.77721804 C-16.42193889 123.25453593 -16.32199742 121.32509147 -13.41775513 117.69068623 C-12.12815384 116.69910904 -12.12815384 116.69910904 -10.8125 115.6875 C-9.64460938 114.6975 -9.64460938 114.6975 -8.453125 113.6875 C-7.26976562 112.6975 -7.26976562 112.6975 -6.0625 111.6875 C4.64955606 102.0290888 13.21503969 88.14438124 14.36450195 73.42016602 C14.6507932 61.83962799 14.86963126 51.47942877 10.1875 40.6875 C9.64416016 39.37458984 9.64416016 39.37458984 9.08984375 38.03515625 C2.05435408 22.55707897 -11.29408233 10.84901226 -26.875 4.4375 C-51.29632825 -3.76035067 -75.78150596 2.78169897 -94.5625 19.875 Z " fill="#ffffff" transform="translate(408.8125,15.3125)"/>
<path d="M0 0 C10.23906578 7.73254248 18.72711365 17.59665562 20.6875 30.6875 C22.11678455 48.13329299 19.50517553 61.04058775 8.03125 74.65234375 C0.02533375 83.28136197 -10.26078398 88.35475631 -21.96875 89.00390625 C-38.65548452 89.56319388 -50.64291019 85.89777041 -63.0625 74.375 C-73.05541038 63.81645319 -75.82689781 52.26922077 -75.73217773 38.15722656 C-75.32139743 24.03483761 -69.475381 12.95884274 -59.25 3.28125 C-42.59283172 -10.42061423 -18.05009418 -11.9794347 0 0 Z M-52.3125 20.6875 C-58.26934175 29.45976447 -59.12110965 37.15279681 -58.3125 47.6875 C-56.12872185 56.93424063 -51.15351899 63.11888233 -43.1875 68.0625 C-35.32708088 72.64162267 -26.26387226 73.09301976 -17.41796875 71.00390625 C-7.53444214 67.34502774 -1.9168373 61.05068257 2.6875 51.6875 C5.46216577 43.5484804 4.55686703 33.54186893 0.9375 25.86328125 C-3.398493 18.31594344 -9.86752726 12.8846498 -18.203125 10.04296875 C-31.49468706 7.8030944 -43.27510706 10.40495515 -52.3125 20.6875 Z " fill="#ffffff" transform="translate(387.3125,39.3125)"/>
<path d="M0 0 C0.66 -0.0103125 1.32 -0.020625 2 -0.03125 C5.05229052 0.77951467 6.09200982 1.97167883 8 4.5 C8.60160199 7.48132278 8.5395049 10.42514944 8.50793457 13.45800781 C8.51729451 14.83097456 8.51729451 14.83097456 8.52684355 16.23167801 C8.54282751 19.30575393 8.53014803 22.37904287 8.51757812 25.453125 C8.52299683 27.65409814 8.53011807 29.85506766 8.53881836 32.05603027 C8.55708441 38.03943236 8.54997051 44.02255917 8.53730202 50.00596619 C8.5271914 56.26082107 8.5365623 62.51565202 8.54284668 68.77050781 C8.55059547 79.94875212 8.5381466 91.12689516 8.51780933 102.30511522 C8.49993809 112.44175357 8.50304213 122.5782087 8.52148438 132.71484375 C8.54288715 144.48423405 8.55086029 156.25353508 8.53903532 168.0229454 C8.53279165 174.2538264 8.53198882 180.48458116 8.54518127 186.7154541 C8.55671588 192.57270401 8.5487575 198.42960711 8.52560425 204.28681946 C8.5203044 206.43951338 8.5218526 208.59223637 8.53065491 210.74491882 C8.54154344 213.67767383 8.52792759 216.60930905 8.50793457 219.54199219 C8.5213189 220.82778105 8.5213189 220.82778105 8.53497362 222.13954544 C8.45860752 227.89228875 8.45860752 227.89228875 6.09325409 231.02667236 C3.82772228 232.62125691 2.74097965 233.04282781 0 233 C-0.66 233.0103125 -1.32 233.020625 -2 233.03125 C-5.05229052 232.22048533 -6.09200982 231.02832117 -8 228.5 C-8.60160199 225.51867722 -8.5395049 222.57485056 -8.50793457 219.54199219 C-8.51417453 218.62668102 -8.5204145 217.71136986 -8.52684355 216.76832199 C-8.54282751 213.69424607 -8.53014803 210.62095713 -8.51757812 207.546875 C-8.52299683 205.34590186 -8.53011807 203.14493234 -8.53881836 200.94396973 C-8.55708441 194.96056764 -8.54997051 188.97744083 -8.53730202 182.99403381 C-8.5271914 176.73917893 -8.5365623 170.48434798 -8.54284668 164.22949219 C-8.55059547 153.05124788 -8.5381466 141.87310484 -8.51780933 130.69488478 C-8.49993809 120.55824643 -8.50304213 110.4217913 -8.52148438 100.28515625 C-8.54288715 88.51576595 -8.55086029 76.74646492 -8.53903532 64.9770546 C-8.53279165 58.7461736 -8.53198882 52.51541884 -8.54518127 46.2845459 C-8.55671588 40.42729599 -8.5487575 34.57039289 -8.52560425 28.71318054 C-8.5203044 26.56048662 -8.5218526 24.40776363 -8.53065491 22.25508118 C-8.54154344 19.32232617 -8.52792759 16.39069095 -8.50793457 13.45800781 C-8.5213189 12.17221895 -8.5213189 12.17221895 -8.53497362 10.86045456 C-8.45860752 5.10771125 -8.45860752 5.10771125 -6.09325409 1.97332764 C-3.82772228 0.37874309 -2.74097965 -0.04282781 0 0 Z " fill="#ffffff" transform="translate(160,183.5)"/>
<path d="M0 0 C0.66 -0.0103125 1.32 -0.020625 2 -0.03125 C5.00147854 0.76601774 6.09615219 2.05298031 8 4.5 C8.39298743 7.21656131 8.540998 9.52823726 8.50793457 12.24316406 C8.51729451 13.4201203 8.51729451 13.4201203 8.52684355 14.62085342 C8.54281156 17.2527487 8.53015481 19.88372269 8.51757812 22.515625 C8.52299756 24.401332 8.53011922 26.28703477 8.53881836 28.17272949 C8.55707583 33.29667004 8.54997415 38.42028895 8.53730202 43.54423523 C8.52718692 48.90222044 8.53656355 54.26017779 8.54284668 59.61816406 C8.55012743 68.61658685 8.54052414 77.61487838 8.52148438 86.61328125 C8.49971486 97.02210635 8.50676592 107.43061807 8.52879 117.83943558 C8.54693179 126.7703177 8.54950828 135.70110538 8.53903532 144.63199997 C8.53279369 149.96862679 8.53198318 155.30510623 8.54518127 160.64172363 C8.55672137 165.65852047 8.54874768 170.67491261 8.52560425 175.69166565 C8.52030731 177.53474759 8.52184771 179.37786349 8.53065491 181.22093201 C8.54155536 183.73336247 8.52791444 186.244489 8.50793457 188.75683594 C8.5213189 189.85585928 8.5213189 189.85585928 8.53497362 190.97708511 C8.48170926 194.42034975 8.2362245 196.19638014 6.09325409 198.95074463 C3.82246197 200.63139912 2.78943679 201.04358495 0 201 C-0.66 201.0103125 -1.32 201.020625 -2 201.03125 C-5.00147854 200.23398226 -6.09615219 198.94701969 -8 196.5 C-8.39298743 193.78343869 -8.540998 191.47176274 -8.50793457 188.75683594 C-8.51417453 187.97219845 -8.5204145 187.18756096 -8.52684355 186.37914658 C-8.54281156 183.7472513 -8.53015481 181.11627731 -8.51757812 178.484375 C-8.52299756 176.598668 -8.53011922 174.71296523 -8.53881836 172.82727051 C-8.55707583 167.70332996 -8.54997415 162.57971105 -8.53730202 157.45576477 C-8.52718692 152.09777956 -8.53656355 146.73982221 -8.54284668 141.38183594 C-8.55012743 132.38341315 -8.54052414 123.38512162 -8.52148438 114.38671875 C-8.49971486 103.97789365 -8.50676592 93.56938193 -8.52879 83.16056442 C-8.54693179 74.2296823 -8.54950828 65.29889462 -8.53903532 56.36800003 C-8.53279369 51.03137321 -8.53198318 45.69489377 -8.54518127 40.35827637 C-8.55672137 35.34147953 -8.54874768 30.32508739 -8.52560425 25.30833435 C-8.52030731 23.46525241 -8.52184771 21.62213651 -8.53065491 19.77906799 C-8.54155536 17.26663753 -8.52791444 14.755511 -8.50793457 12.24316406 C-8.51685746 11.51048183 -8.52578034 10.77779961 -8.53497362 10.02291489 C-8.48170926 6.57965025 -8.2362245 4.80361986 -6.09325409 2.04925537 C-3.82246197 0.36860088 -2.78943679 -0.04358495 0 0 Z " fill="#ffffff" transform="translate(360,167.5)"/>
<path d="M0 0 C5.82485779 3.51996782 10.54466582 8.98962934 12.5625 15.5 C13.36764105 23.33608208 13.68710392 31.11922577 8.5625 37.5 C3.75801361 42.54521222 -0.59927055 46.10562995 -7.70703125 46.8359375 C-16.22326573 46.92983204 -22.11345494 46.6177288 -28.40234375 40.62890625 C-34.7841668 33.72505269 -35.91792252 28.29832071 -35.7421875 18.9453125 C-35.04689797 11.08319245 -31.38995981 6.95041296 -25.53515625 1.9453125 C-18.47077988 -2.92213491 -7.84396301 -3.47595223 0 0 Z M-16.8125 17.125 C-18.92456506 20.21186432 -19.04945145 21.8282913 -18.4375 25.5 C-16.9375 28 -16.9375 28 -14.4375 29.5 C-10.7657913 30.11195145 -9.14936432 29.98706506 -6.0625 27.875 C-3.95043494 24.78813568 -3.82554855 23.1717087 -4.4375 19.5 C-5.9375 17 -5.9375 17 -8.4375 15.5 C-12.1092087 14.88804855 -13.72563568 15.01293494 -16.8125 17.125 Z " fill="#ffffff" transform="translate(171.4375,441.5)"/>
<path d="M0 0 C1.10794922 -0.01260864 2.21589844 -0.02521729 3.35742188 -0.03820801 C4.54916016 -0.03011108 5.74089844 -0.02201416 6.96875 -0.01367188 C8.19658203 -0.01749878 9.42441406 -0.02132568 10.68945312 -0.02526855 C13.28516459 -0.02799029 15.88090336 -0.02061099 18.4765625 -0.00390625 C22.45374599 0.01749738 26.42912282 -0.0037015 30.40625 -0.02929688 C32.92708733 -0.02665365 35.44792353 -0.02152878 37.96875 -0.01367188 C39.16048828 -0.0217688 40.35222656 -0.02986572 41.58007812 -0.03820801 C43.24200195 -0.01929504 43.24200195 -0.01929504 44.9375 0 C45.91138672 0.00318237 46.88527344 0.00636475 47.88867188 0.00964355 C51.19021681 0.65961178 52.38452655 1.93295409 54.46875 4.51757812 C55 6.51757812 55 6.51757812 54.96875 8.51757812 C54.98421875 9.50757813 54.98421875 9.50757813 55 10.51757812 C54.2245785 13.43681202 52.78007479 14.6111988 50.46875 16.51757812 C47.88867188 17.0255127 47.88867188 17.0255127 44.9375 17.03515625 C43.82955078 17.04776489 42.72160156 17.06037354 41.58007812 17.07336426 C40.38833984 17.06526733 39.19660156 17.05717041 37.96875 17.04882812 C36.12700195 17.05456848 36.12700195 17.05456848 34.24804688 17.0604248 C31.65233541 17.06314654 29.05659664 17.05576724 26.4609375 17.0390625 C22.48375401 17.01765887 18.50837718 17.03885775 14.53125 17.06445312 C12.01041267 17.0618099 9.48957647 17.05668503 6.96875 17.04882812 C5.77701172 17.05692505 4.58527344 17.06502197 3.35742188 17.07336426 C1.69549805 17.05445129 1.69549805 17.05445129 0 17.03515625 C-0.97388672 17.03197388 -1.94777344 17.0287915 -2.95117188 17.0255127 C-6.25271681 16.37554447 -7.44702655 15.10220216 -9.53125 12.51757812 C-10.0625 10.51757812 -10.0625 10.51757812 -10.03125 8.51757812 C-10.04671875 7.52757813 -10.04671875 7.52757813 -10.0625 6.51757812 C-8.67664018 1.3002235 -4.95665502 0.01619688 0 0 Z " fill="#ffffff" transform="translate(137.53125,119.482421875)"/>
</svg>
