<?xml version="1.0" encoding="UTF-8"?>
<!DOCTYPE svg PUBLIC "-//W3C//DTD SVG 1.1//EN" "http://www.w3.org/Graphics/SVG/1.1/DTD/svg11.dtd">
<svg xmlns="http://www.w3.org/2000/svg" version="1.1" width="512px" height="512px" style="shape-rendering:geometricPrecision; text-rendering:geometricPrecision; image-rendering:optimizeQuality; fill-rule:evenodd; clip-rule:evenodd" xmlns:xlink="http://www.w3.org/1999/xlink">
<g><path style="opacity:0.961" fill="#ffffff" d="M 349.5,-0.5 C 350.5,-0.5 351.5,-0.5 352.5,-0.5C 374.083,27.6509 395.916,55.6509 418,83.5C 428.774,97.3722 437.774,112.372 445,128.5C 458.889,173.491 448.056,211.324 412.5,242C 403.556,248.603 393.889,253.937 383.5,258C 409.259,305.31 412.426,354.143 393,404.5C 365.339,465.918 318.173,501.585 251.5,511.5C 238.833,511.5 226.167,511.5 213.5,511.5C 148.709,501.867 102.209,467.534 74,408.5C 52.7353,357.392 55.0686,307.392 81,258.5C 88.4162,245.999 96.0829,233.665 104,221.5C 146.121,166.25 188.954,111.584 232.5,57.5C 245.229,72.6103 257.729,87.9436 270,103.5C 274.667,96.8333 279.333,90.1667 284,83.5C 306.084,55.6509 327.917,27.6509 349.5,-0.5 Z M 350.5,49.5 C 370.281,73.0418 389.114,97.3751 407,122.5C 428.919,160.083 423.086,192.583 389.5,220C 363.833,235.333 338.167,235.333 312.5,220C 278.909,192.539 273.076,160.039 295,122.5C 313.024,97.7774 331.524,73.4441 350.5,49.5 Z M 232.5,107.5 C 240.366,116.54 247.7,126.04 254.5,136C 245.087,175.758 255.087,209.758 284.5,238C 303.729,253.968 325.896,262.468 351,263.5C 382.276,314.854 382.276,366.187 351,417.5C 316.122,465.677 268.955,486.177 209.5,479C 159.273,469.102 123.439,440.935 102,394.5C 84.8304,352.717 87.1637,312.05 109,272.5C 119.006,255.148 130.006,238.481 142,222.5C 172.381,184.291 202.548,145.958 232.5,107.5 Z"/></g>
</svg>
