<?xml version="1.0" encoding="UTF-8"?>
<!DOCTYPE svg PUBLIC "-//W3C//DTD SVG 1.1//EN" "http://www.w3.org/Graphics/SVG/1.1/DTD/svg11.dtd">
<svg xmlns="http://www.w3.org/2000/svg" version="1.1" width="512px" height="512px" style="shape-rendering:geometricPrecision; text-rendering:geometricPrecision; image-rendering:optimizeQuality; fill-rule:evenodd; clip-rule:evenodd" xmlns:xlink="http://www.w3.org/1999/xlink">
<g><path style="opacity:0.971" fill="#ffffff" d="M 280.5,-0.5 C 291.167,-0.5 301.833,-0.5 312.5,-0.5C 358.147,6.98899 391.814,31.1557 413.5,72C 457.89,75.4342 488.724,97.6009 506,138.5C 508.295,145.514 510.128,152.514 511.5,159.5C 511.5,168.5 511.5,177.5 511.5,186.5C 503.882,228.296 479.882,256.129 439.5,270C 434.9,271.317 430.234,272.317 425.5,273C 329.483,273.026 233.483,273.693 137.5,275C 128.053,276.924 119.386,280.59 111.5,286C 103.833,292.333 96.8333,299.333 90.5,307C 83.1667,311.667 75.8333,311.667 68.5,307C 67.3333,305.167 66.1667,303.333 65,301.5C 64.5437,272.333 64.0437,243.166 63.5,214C 60.1269,181.172 67.2935,151.006 85,123.5C 108.464,92.848 139.63,76.5147 178.5,74.5C 199.6,31.9504 233.6,6.95039 280.5,-0.5 Z M 295.5,29.5 C 331.869,30.674 359.869,46.3406 379.5,76.5C 369.453,80.0229 360.12,84.8563 351.5,91C 345.92,97.5462 345.087,104.713 349,112.5C 353.718,117.739 359.551,119.572 366.5,118C 393.02,100.238 420.354,98.9049 448.5,114C 477.679,135.539 486.846,163.706 476,198.5C 463.513,226.332 442.013,241.165 411.5,243C 319.5,243.333 227.5,243.667 135.5,244C 120.875,245.929 107.541,251.096 95.5,259.5C 94.3335,235.507 94.1669,211.507 95,187.5C 98.0614,151.785 115.895,126.619 148.5,112C 154.969,109.549 161.635,108.049 168.5,107.5C 167.475,115.139 167.309,122.805 168,130.5C 173.984,140.602 182.15,142.769 192.5,137C 194.617,135.269 196.117,133.102 197,130.5C 202.487,69.8493 235.32,36.1826 295.5,29.5 Z"/></g>
<g><path style="opacity:0.952" fill="#ffffff" d="M 419.5,303.5 C 427.174,303.334 434.841,303.5 442.5,304C 451.338,309.18 453.838,316.68 450,326.5C 445.31,332.911 438.977,335.245 431,333.5C 418.958,335.27 411.791,330.27 409.5,318.5C 410.526,311.833 413.86,306.833 419.5,303.5 Z"/></g>
<g><path style="opacity:0.982" fill="#ffffff" d="M 211.5,304.5 C 267.501,304.333 323.501,304.5 379.5,305C 388.338,310.18 390.838,317.68 387,327.5C 385.116,330.384 382.616,332.551 379.5,334C 324.475,334.034 269.475,334.701 214.5,336C 199.838,339.667 189.004,348.167 182,361.5C 174.333,366.833 166.667,366.833 159,361.5C 155.153,356.273 154.153,350.607 156,344.5C 168.43,322.705 186.93,309.372 211.5,304.5 Z"/></g>
<g><path style="opacity:0.971" fill="#ffffff" d="M 233.5,511.5 C 229.833,511.5 226.167,511.5 222.5,511.5C 217.766,509.261 214.599,505.594 213,500.5C 208.333,469.167 203.667,437.833 199,406.5C 181.243,405.508 163.41,405.174 145.5,405.5C 150.103,435.617 154.436,465.783 158.5,496C 158.528,503.449 155.195,508.616 148.5,511.5C 144.833,511.5 141.167,511.5 137.5,511.5C 132.36,509.181 129.194,505.181 128,499.5C 120.667,449.5 113.333,399.5 106,349.5C 87.9099,348.508 69.7433,348.174 51.5,348.5C 44.5681,398.19 37.4014,447.857 30,497.5C 29.0406,503.777 25.874,508.444 20.5,511.5C 16.5,511.5 12.5,511.5 8.5,511.5C 7.01307,510.196 5.3464,509.03 3.5,508C 2.30342,505.985 0.970083,504.151 -0.5,502.5C -0.5,497.833 -0.5,493.167 -0.5,488.5C 7.40035,438.37 14.9004,388.037 22,337.5C 21.7892,329.075 25.2892,322.908 32.5,319C 63.5,318.333 94.5,318.333 125.5,319C 129.415,321.246 132.248,324.412 134,328.5C 136.455,343.853 138.955,359.186 141.5,374.5C 167.16,375.333 192.827,375.833 218.5,376C 221.295,377.793 223.795,379.96 226,382.5C 232.483,420.214 238.316,458.047 243.5,496C 243.538,503.44 240.205,508.607 233.5,511.5 Z"/></g>
</svg>
