<?xml version="1.0" encoding="UTF-8"?>
<svg version="1.1" xmlns="http://www.w3.org/2000/svg" width="512" height="512">
<path d="M0 0 C1.10819092 0.24145752 1.10819092 0.24145752 2.23876953 0.48779297 C25.60098845 5.80365524 47.05888468 17.20069225 65 33 C65.86238281 33.7528125 66.72476563 34.505625 67.61328125 35.28125 C70.1057486 37.49005263 72.55843501 39.7351813 75 42 C75.96292969 42.86431641 75.96292969 42.86431641 76.9453125 43.74609375 C101.31096192 66.63349247 118.4721769 102.55484749 120.20507812 135.95239258 C120.32703187 140.21852934 120.33453707 144.48246818 120.3125 148.75 C120.31034485 149.50178528 120.3081897 150.25357056 120.30596924 151.02813721 C120.25559382 161.97532805 119.86371485 172.37411069 117 183 C116.69400879 184.16861572 116.69400879 184.16861572 116.38183594 185.36083984 C109.93563242 209.63028003 99.29402552 231.57596713 82 250 C81.43796875 250.60440918 80.8759375 251.20881836 80.296875 251.83154297 C69.96088807 262.84442469 58.90098815 271.84468617 46 279.6875 C37.98385093 284.70651321 31.97031372 291.90341422 29 301 C29.3648681 304.07857459 30.22131242 305.33196864 32 308 C32.26742554 310.79476929 32.26742554 310.79476929 32.29052734 314.22802734 C32.30328705 315.51301117 32.31604675 316.797995 32.32919312 318.12191772 C32.33225074 319.52658945 32.33447852 320.9312632 32.3359375 322.3359375 C32.34236504 323.77698906 32.34909336 325.21803932 32.35610962 326.65908813 C32.36808562 329.68030827 32.37179016 332.70141405 32.37060547 335.72265625 C32.37040235 339.58871974 32.39769461 343.45404753 32.43214989 347.31993675 C32.45442026 350.2968582 32.45844297 353.27360269 32.45738602 356.25059891 C32.45974216 357.67552855 32.46856658 359.10046306 32.48405075 360.52531052 C32.50370784 362.5211715 32.49535089 364.51724847 32.48583984 366.51318359 C32.48868988 367.64774994 32.49153992 368.78231628 32.49447632 369.95126343 C31.88910846 373.68371142 30.66459478 375.35944644 28 378 C25.203125 378.48828125 25.203125 378.48828125 22.25 378.3125 C20.77273438 378.24482422 20.77273438 378.24482422 19.265625 378.17578125 C18.51796875 378.11777344 17.7703125 378.05976563 17 378 C16.88785156 379.52367187 16.88785156 379.52367187 16.7734375 381.078125 C15.62800108 393.92706978 11.95043439 405.15516943 2 414 C-8.31175316 421.86866087 -18.01781612 424.56833071 -30.875 424.4375 C-31.93420654 424.42847656 -32.99341309 424.41945313 -34.0847168 424.41015625 C-47.03001706 424.12294829 -56.24384084 420.6789807 -66 412 C-75.68506605 401.84688243 -77.74342498 391.47511373 -79 378 C-79.74765625 378.05800781 -80.4953125 378.11601562 -81.265625 378.17578125 C-82.25046875 378.22089844 -83.2353125 378.26601563 -84.25 378.3125 C-85.22453125 378.37050781 -86.1990625 378.42851562 -87.203125 378.48828125 C-90 378 -90 378 -92.14344788 375.87391663 C-94.35638277 372.44832447 -94.50111433 370.57848103 -94.50170898 366.52905273 C-94.51108994 365.24099228 -94.52047089 363.95293182 -94.53013611 362.62583923 C-94.51965857 361.22841728 -94.50828966 359.83100176 -94.49609375 358.43359375 C-94.49624882 356.99300565 -94.49773907 355.55241712 -94.50050354 354.11183167 C-94.50188562 351.09821038 -94.48936084 348.08506614 -94.46655273 345.0715332 C-94.43814244 341.212214 -94.44091457 337.35368548 -94.45364285 333.49430752 C-94.46060271 330.52168544 -94.45280779 327.54924561 -94.44038582 324.5766468 C-94.43587606 323.15371462 -94.43553037 321.73076284 -94.43945122 320.3078289 C-94.44236674 318.31903731 -94.42368447 316.33024956 -94.40405273 314.34155273 C-94.39864975 313.21079819 -94.39324677 312.08004364 -94.38768005 310.9150238 C-93.95763993 307.68148833 -93.04586001 306.45772345 -91 304 C-91.25265316 300.44039771 -92.4637398 297.71549563 -94.1875 294.625 C-94.57292969 293.91601562 -94.95835937 293.20703125 -95.35546875 292.4765625 C-99.83941012 285.72402371 -104.8445802 281.40821693 -111.6875 277.125 C-146.70905875 254.39850614 -171.02288493 220.25435463 -179.79345703 179.29443359 C-181.70624532 169.72096277 -182.47567284 160.4524577 -182.39111328 150.69775391 C-182.37499776 148.4996951 -182.39110264 146.3034736 -182.41015625 144.10546875 C-182.46809999 106.19393078 -166.31437009 69.9158414 -140 43 C-139.13890625 42.07703125 -138.2778125 41.1540625 -137.390625 40.203125 C-102.90612906 4.08622688 -48.32165713 -10.59436288 0 0 Z M-128 55 C-128.80953125 55.80953125 -129.6190625 56.6190625 -130.453125 57.453125 C-156.56764173 85.02859371 -165.95429777 121.13850466 -165.23699951 158.16455078 C-164.28026961 191.81881306 -146.51701953 224.3899955 -122.61401367 247.36376953 C-116.21934413 253.31702969 -109.28325392 258.19030401 -102 263 C-87.9159861 272.34286071 -77.61830346 283.37735085 -73.47265625 300.20703125 C-73.1584398 302.00939369 -73.1584398 302.00939369 -72 303 C-69.44410112 303.09506052 -66.91532028 303.12556761 -64.35913086 303.11352539 C-63.55919205 303.11367142 -62.75925323 303.11381744 -61.93507385 303.1139679 C-59.27830335 303.11326855 -56.62160207 303.10547518 -53.96484375 303.09765625 C-52.12781309 303.09579215 -50.29078194 303.09436821 -48.45375061 303.09336853 C-43.60890338 303.08954275 -38.76408592 303.07971196 -33.91925049 303.06866455 C-28.97937422 303.05845172 -24.03949315 303.05387119 -19.09960938 303.04882812 C-9.39972647 303.03808974 0.30013429 303.0210126 10 303 C10.19734741 302.46768265 10.39469482 301.9353653 10.59802246 301.38691711 C10.99326111 300.3258802 10.99326111 300.3258802 11.39648438 299.2434082 C11.78531799 298.19743217 11.78531799 298.19743217 12.18200684 297.13032532 C18.51336823 280.64136176 27.65263319 270.40872653 42.58178711 261.12817383 C49.65579132 256.70504966 55.84591322 251.61455041 62 246 C62.79664063 245.28585937 63.59328125 244.57171875 64.4140625 243.8359375 C83.32680992 225.99246202 95.36753099 201.09008921 101 176 C101.17805176 175.22269531 101.35610352 174.44539062 101.53955078 173.64453125 C103.20792076 165.61727124 103.39983023 157.67634205 103.375 149.5 C103.37412384 148.7941275 103.37324768 148.088255 103.37234497 147.36099243 C103.32527667 135.84098447 102.46047329 125.03972958 99 114 C98.76394043 113.22978516 98.52788086 112.45957031 98.28466797 111.66601562 C86.74662838 75.09541434 60.63760725 45.57310382 26.91015625 27.8125 C-25.43604864 1.32450531 -87.20849119 13.9809235 -128 55 Z M-77 320 C-77 333.53 -77 347.06 -77 361 C-46.64 361 -16.28 361 15 361 C15 347.47 15 333.94 15 320 C-15.36 320 -45.72 320 -77 320 Z M-62 378 C-60.84085512 389.59144876 -58.8975642 395.00922264 -50.2578125 402.4921875 C-43.95044737 406.70437252 -38.637541 407.55612612 -31.1875 407.5 C-29.85682495 407.49033203 -29.85682495 407.49033203 -28.49926758 407.48046875 C-20.44983698 407.25549616 -14.96850219 405.63399242 -8.9609375 400.1328125 C-2.47752839 393.27587365 -1.05599595 387.50396357 0 378 C-20.46 378 -40.92 378 -62 378 Z " fill="#ffffff" transform="translate(287,83)"/>
<path d="M0 0 C0.81331787 -0.01321289 1.62663574 -0.02642578 2.46459961 -0.04003906 C7.77139548 -0.0466062 12.54732228 0.27564717 17 3.5 C23.89451502 13.29746871 18.99545171 35.25835418 17.15625 46.21484375 C13.63078158 65.20794069 6.18879673 81.73776951 -7.8125 95.1875 C-8.39515625 95.77789062 -8.9778125 96.36828125 -9.578125 96.9765625 C-26.45014601 112.91124901 -52.73367321 118.27242648 -75.125 118.20703125 C-76.37925781 118.20421143 -77.63351562 118.2013916 -78.92578125 118.19848633 C-79.87839844 118.19486084 -80.83101563 118.19123535 -81.8125 118.1875 C-81.7810791 119.92036255 -81.7810791 119.92036255 -81.74902344 121.68823242 C-81.67649602 125.98384148 -81.63065407 130.27939665 -81.59277344 134.57543945 C-81.57268695 136.43295398 -81.54541222 138.29040551 -81.51074219 140.14770508 C-81.46209263 142.82128463 -81.43950191 145.49402656 -81.421875 148.16796875 C-81.40122986 148.99523972 -81.38058472 149.82251068 -81.35931396 150.67485046 C-81.35775084 154.71263434 -81.5089903 156.70107502 -83.69824219 160.2097168 C-86.10113968 162.45750809 -87.06704962 162.86807278 -90.3125 162.8125 C-91.0653125 162.82539063 -91.818125 162.83828125 -92.59375 162.8515625 C-95.99808361 161.83265984 -96.94365276 160.18263981 -98.8125 157.1875 C-99.34974712 154.17192328 -99.27936182 151.22285267 -99.203125 148.16796875 C-99.19746521 147.30939774 -99.19180542 146.45082672 -99.18597412 145.5662384 C-99.16365787 142.8352484 -99.11347167 140.10559061 -99.0625 137.375 C-99.0424288 135.51889921 -99.02417911 133.66277777 -99.0078125 131.80664062 C-98.96380881 127.26641704 -98.89481521 122.72718407 -98.8125 118.1875 C-99.85132324 118.20816528 -99.85132324 118.20816528 -100.91113281 118.22924805 C-106.92235859 118.29762754 -112.64214097 118.03771374 -118.5625 117 C-119.32836426 116.8669043 -120.09422852 116.73380859 -120.88330078 116.59667969 C-139.12593418 113.22079183 -156.19922186 105.74864823 -167.5 90.5 C-178.27443108 74.11388606 -181.96173676 55.96880499 -182.1875 36.625 C-182.22488281 35.40619141 -182.26226562 34.18738281 -182.30078125 32.93164062 C-182.38600557 24.30031126 -182.38600557 24.30031126 -180.109375 19.8828125 C-174.78433386 17.14458045 -169.5839972 17.49483278 -163.6875 17.625 C-161.80683838 17.64989502 -161.80683838 17.64989502 -159.88818359 17.67529297 C-137.85953097 18.22015135 -117.45988753 23.62830237 -101.39453125 39.58984375 C-92.8125 48.98474499 -92.8125 48.98474499 -92.8125 53.1875 C-92.1525 53.1875 -91.4925 53.1875 -90.8125 53.1875 C-90.3484375 51.393125 -90.3484375 51.393125 -89.875 49.5625 C-84.14711533 32.61861791 -70.47214156 19.13966173 -54.8125 11.1875 C-37.44153439 3.14929683 -18.99438085 0.20882837 0 0 Z M-62.59765625 37.7421875 C-66.33402869 41.86735354 -69.15634339 46.31106889 -71.8125 51.1875 C-72.27398437 52.02796875 -72.73546875 52.8684375 -73.2109375 53.734375 C-80.59224054 68.49698108 -82.03831633 84.9538148 -81.8125 101.1875 C-59.9024255 102.24956824 -36.64564273 97.4331974 -19.5625 83 C-5.19905339 69.38773205 1.50978587 47.67984913 2.1875 28.1875 C2.24864392 24.51886451 2.25026985 20.85604872 2.1875 17.1875 C-20.83791426 16.30941217 -45.48720042 21.38048743 -62.59765625 37.7421875 Z M-164.8125 35.1875 C-165.91885386 52.58184129 -161.94340051 70.03388106 -150.5625 83.5625 C-146.15068436 88.17384499 -141.51758365 91.37050387 -135.8125 94.1875 C-135.06742188 94.56519531 -134.32234375 94.94289063 -133.5546875 95.33203125 C-122.93532091 100.1377446 -110.36850143 101.73778578 -98.8125 101.1875 C-97.86534992 84.62991345 -101.54470624 65.8287313 -112.8125 53.1875 C-113.52792969 52.29998047 -113.52792969 52.29998047 -114.2578125 51.39453125 C-123.14712769 41.2767931 -137.89994286 36.9657802 -150.8125 35.1875 C-153.27004141 35.12171998 -155.72918778 35.10180838 -158.1875 35.125 C-159.43273437 35.13402344 -160.67796875 35.14304688 -161.9609375 35.15234375 C-162.90195313 35.16394531 -163.84296875 35.17554688 -164.8125 35.1875 Z " fill="#ffffff" transform="translate(343.8125,205.8125)"/>
<path d="M0 0 C13.20125536 7.34603408 24.33489877 22.66979754 31 36 C31.53507099 40.0130324 31.33051628 41.53928033 28.9375 44.875 C26 47 26 47 22.5 47.625 C17.09441804 46.65971751 14.871171 43.20937257 11.74609375 38.87109375 C10.97528356 37.72742344 10.20580267 36.58285634 9.4375 35.4375 C3.92861385 27.4547601 -2.67975035 20.90297517 -9.79296875 14.34765625 C-11.82851142 12.07496298 -11.88092795 9.97680136 -12 7 C-9.38195373 1.24029821 -6.29575828 -0.6652122 0 0 Z " fill="#ffffff" transform="translate(325,148)"/>
<path d="M0 0 C3.16670553 1.78542848 6.28239863 3.637466 9.38964844 5.52441406 C10.46085937 6.1625 11.53207031 6.80058594 12.63574219 7.45800781 C15.51870091 9.17773039 18.39284678 10.91114895 21.26464844 12.64941406 C22.17456543 13.17680176 23.08448242 13.70418945 24.02197266 14.24755859 C26.64354166 15.88625326 27.4387658 16.67623656 28.26464844 19.64941406 C27.94278112 25.76489318 27.94278112 25.76489318 25.82714844 28.52441406 C22.55302928 30.88177985 20.27710997 30.98214605 16.26464844 30.64941406 C13.07666016 29.24414062 13.07666016 29.24414062 9.69433594 27.29003906 C9.09082306 26.94438904 8.48731018 26.59873901 7.86550903 26.24261475 C6.59641534 25.51226109 5.3308979 24.77566151 4.06884766 24.03320312 C2.14628375 22.90331363 0.21271641 21.79454047 -1.72363281 20.68847656 C-12.40192982 14.51379694 -12.40192982 14.51379694 -15.73535156 10.64941406 C-16.23144531 8.39550781 -16.23144531 8.39550781 -16.17285156 6.08691406 C-16.1715625 5.3225 -16.17027344 4.55808594 -16.16894531 3.77050781 C-15.63292143 1.14833695 -14.83254799 0.27289083 -12.73535156 -1.35058594 C-7.84903838 -2.979357 -4.51567233 -2.22962329 0 0 Z " fill="#ffffff" transform="translate(431.7353515625,329.3505859375)"/>
<path d="M0 0 C2.45964276 2.29566658 2.94043955 3.60009413 3.4375 6.9375 C2.87349285 10.88555005 1.76665696 12.11716927 -1 15 C-3.76836324 16.852985 -6.67537884 18.39401619 -9.625 19.9375 C-11.2509698 20.8067822 -12.87597808 21.67786538 -14.5 22.55078125 C-15.27859375 22.9679541 -16.0571875 23.38512695 -16.859375 23.81494141 C-19.53222475 25.29464176 -22.07340253 26.94652729 -24.625 28.625 C-29.03604367 31.30204719 -31.88594211 31.88173412 -37 31 C-39.5 29.5 -39.5 29.5 -41 27 C-41.77403846 21.58173077 -41.77403846 21.58173077 -41 19 C-37.65917407 15.29513872 -34.27842457 12.74277724 -29.96484375 10.265625 C-28.82595703 9.60949219 -27.68707031 8.95335938 -26.51367188 8.27734375 C-25.63279907 7.77823486 -25.63279907 7.77823486 -24.73413086 7.26904297 C-22.93349735 6.24772971 -21.14123766 5.2127948 -19.34960938 4.17578125 C-6.76789523 -3.02395319 -6.76789523 -3.02395319 0 0 Z " fill="#ffffff" transform="translate(457,119)"/>
<path d="M0 0 C2.375 1.5625 2.375 1.5625 4 4 C4.87078652 9.48595506 4.87078652 9.48595506 4 12 C-0.92029081 17.0066117 -7.19259948 20.2951535 -13.23144531 23.78588867 C-15.00365183 24.81461982 -16.76332693 25.86285036 -18.5234375 26.91210938 C-19.65007812 27.56630859 -20.77671875 28.22050781 -21.9375 28.89453125 C-22.95714844 29.49112549 -23.97679688 30.08771973 -25.02734375 30.70239258 C-28.97868382 32.42720963 -32.15769815 32.61410062 -36.25 31.25 C-38.51275631 29.63374549 -39.20297288 28.68090941 -40 26 C-39.86684396 22.27163101 -39.74917038 19.88602976 -37.30273438 16.99267578 C-34.76282738 14.7947622 -32.22117413 13.24096079 -29.28125 11.6171875 C-28.18425781 11.00746094 -27.08726563 10.39773438 -25.95703125 9.76953125 C-24.81621094 9.14433594 -23.67539063 8.51914062 -22.5 7.875 C-21.35917969 7.24207031 -20.21835938 6.60914063 -19.04296875 5.95703125 C-16.03505459 4.2922515 -13.02570039 2.63222783 -10 1 C-9.28392578 0.60312988 -8.56785156 0.20625977 -7.83007812 -0.20263672 C-4.93729241 -1.46302068 -2.97085663 -0.86649985 0 0 Z " fill="#ffffff" transform="translate(92,328)"/>
<path d="M0 0 C6.75448621 0.08025132 12.18616081 3.79780747 17.81298828 7.16308594 C19.71619308 8.30001456 21.63505376 9.40570785 23.55859375 10.5078125 C33.88717105 16.52490786 33.88717105 16.52490786 36.3359375 20.546875 C37.18526847 24.46450974 36.89796258 27.61016653 34.8359375 31.046875 C31.24459306 33.20168166 28.35168419 33.35018002 24.3359375 32.546875 C19.73186525 30.48367652 15.45639967 27.90845313 11.1484375 25.296875 C9.97549517 24.60656561 8.8016721 23.91775043 7.62695312 23.23046875 C-6.23558558 15.0197644 -6.23558558 15.0197644 -7.6640625 10.109375 C-7.6640625 4.2863702 -5.7238713 0.85430915 0 0 Z " fill="#ffffff" transform="translate(59.6640625,117.453125)"/>
<path d="M0 0 C4.45850936 0.79616239 5.90783917 1.93313458 8.5 5.625 C8.98953505 10.86692737 8.20228072 14.0272904 5.61328125 18.56640625 C4.6996582 20.18385742 4.6996582 20.18385742 3.76757812 21.83398438 C3.12240234 22.94064453 2.47722656 24.04730469 1.8125 25.1875 C0.87374023 26.85329102 0.87374023 26.85329102 -0.08398438 28.55273438 C-7.97704362 42.36352181 -7.97704362 42.36352181 -12.5 44.625 C-16.15546065 45.03116229 -18.08917682 44.83934253 -21.375 43.125 C-23.73362137 40.35015132 -24.12298526 38.77775592 -24.02148438 35.17529297 C-22.94845298 29.92768716 -20.02451337 25.35478915 -17.3659668 20.76049805 C-16.31468718 18.94128487 -15.29144899 17.1084026 -14.27148438 15.27148438 C-6.27908514 1.1212652 -6.27908514 1.1212652 0 0 Z " fill="#ffffff" transform="translate(368.5,34.375)"/>
<path d="M0 0 C4.5065503 0.80474113 5.52328699 2.17308883 8.5 5.625 C10.32382465 8.46072113 11.91806385 11.39898261 13.5 14.375 C13.9125 15.13554688 14.325 15.89609375 14.75 16.6796875 C15.582486 18.21458356 16.41014082 19.75210989 17.23291016 21.29223633 C18.10202214 22.89230666 18.99362595 24.48030353 19.90380859 26.05737305 C20.35578613 26.84152588 20.80776367 27.62567871 21.2734375 28.43359375 C21.890979 29.4863147 21.890979 29.4863147 22.52099609 30.56030273 C24.25260984 34.21223726 24.17567262 36.63853152 23.5 40.625 C20.95005852 43.62493115 19.37117244 44.47980459 15.5 45.125 C11.7093527 44.49322545 10.31785067 43.22156896 7.5 40.625 C4.83838663 36.81717932 2.57550652 32.78458984 0.28686523 28.74487305 C-0.80934917 26.81803827 -1.93167505 24.90820353 -3.05664062 22.99804688 C-3.76466099 21.76396038 -4.47109546 20.52896238 -5.17578125 19.29296875 C-5.81427002 18.18203857 -6.45275879 17.0711084 -7.1105957 15.92651367 C-8.68558037 12.18402243 -8.91450452 9.64710663 -8.5 5.625 C-5.90783917 1.93313458 -4.45850936 0.79616239 0 0 Z " fill="#ffffff" transform="translate(143.5,34.375)"/>
<path d="M0 0 C1.17798912 -0.0049926 1.17798912 -0.0049926 2.379776 -0.01008606 C4.03988052 -0.01514588 5.6999952 -0.01749468 7.36010742 -0.01733398 C9.89714338 -0.01952004 12.43374412 -0.03768421 14.97070312 -0.05664062 C16.58463393 -0.05957484 18.1985668 -0.06155945 19.8125 -0.0625 C20.56989975 -0.06968552 21.3272995 -0.07687103 22.10765076 -0.08427429 C28.91256545 -0.05481829 28.91256545 -0.05481829 31.97265625 2.16796875 C34.47297279 5.91844357 34.50869179 7.72653141 33.97265625 12.16796875 C31.98953297 14.86981774 30.40477983 16.82675423 27.04098511 17.62820435 C24.71064456 17.81318452 22.43114377 17.83491206 20.09375 17.796875 C19.24466568 17.79928696 18.39558136 17.80169891 17.52076721 17.80418396 C15.73132644 17.80320715 13.94185484 17.7898531 12.15258789 17.76489258 C9.41513475 17.73053124 6.68090222 17.74425319 3.94335938 17.76367188 C2.2018092 17.75677443 0.46026733 17.74710296 -1.28125 17.734375 C-2.09799698 17.73933487 -2.91474396 17.74429474 -3.75624084 17.74940491 C-7.42101833 17.67347736 -9.58095751 17.50696063 -12.54296875 15.25756836 C-14.60880654 12.34942598 -14.53568528 10.52660806 -14.35546875 7.0703125 C-13.89846406 4.4207734 -12.99052502 2.98572919 -11.02734375 1.16796875 C-7.31749449 -0.06864767 -3.86436083 0.00566265 0 0 Z " fill="#ffffff" transform="translate(456.02734375,229.83203125)"/>
<path d="M0 0 C1.17655403 -0.00855011 1.17655403 -0.00855011 2.37687683 -0.01727295 C4.03875376 -0.0267264 5.70064947 -0.0332583 7.36254883 -0.03710938 C9.89763413 -0.04679729 12.43190254 -0.07780904 14.96679688 -0.109375 C16.58202644 -0.11590697 18.1972618 -0.12115668 19.8125 -0.125 C20.94556328 -0.1435202 20.94556328 -0.1435202 22.10151672 -0.16241455 C26.6149066 -0.1434415 29.52562515 0.39329195 33.10546875 3.203125 C34.67018108 6.33254965 34.80248833 9.81394723 34.10546875 13.203125 C32.62548828 15.29711914 32.62548828 15.29711914 30.10546875 17.203125 C27.06684215 17.61298975 24.39772272 17.78798226 21.359375 17.76953125 C20.51124741 17.77572983 19.66311981 17.78192841 18.78929138 17.78831482 C16.99812974 17.79540875 15.20690211 17.79224635 13.41577148 17.77954102 C10.68023803 17.76568714 7.94813453 17.79973359 5.21289062 17.83789062 C3.47005125 17.83884199 1.7272076 17.83698204 -0.015625 17.83203125 C-0.83034775 17.84528946 -1.6450705 17.85854767 -2.48448181 17.87220764 C-6.73919544 17.80273097 -8.4275698 17.56135907 -11.91430664 14.88647461 C-13.89453125 12.203125 -13.89453125 12.203125 -14.45703125 8.640625 C-13.81581936 4.72210789 -12.99953906 3.57754274 -9.89453125 1.203125 C-6.7683947 -0.35994327 -3.43292502 0.01916022 0 0 Z " fill="#ffffff" transform="translate(35.89453125,229.796875)"/>
<path d="M0 0 C0.66 -0.0103125 1.32 -0.020625 2 -0.03125 C5.05368756 0.77988576 6.09111769 1.96980288 8 4.5 C8.60114553 7.49736221 8.56057764 10.45109277 8.53125 13.5 C8.5350769 14.37269531 8.53890381 15.24539062 8.54284668 16.14453125 C8.5455649 17.98699092 8.53820994 19.82948924 8.52148438 21.671875 C8.50007248 24.49045934 8.52128801 27.30649485 8.546875 30.125 C8.54423171 31.91667229 8.53910669 33.70834299 8.53125 35.5 C8.53934692 36.34175781 8.54744385 37.18351562 8.55578613 38.05078125 C8.46235399 43.88715618 8.46235399 43.88715618 6.09179688 47.02929688 C3.8272647 48.62144695 2.7390083 49.042797 0 49 C-0.99 49.01546875 -0.99 49.01546875 -2 49.03125 C-5.05368756 48.22011424 -6.09111769 47.03019712 -8 44.5 C-8.60114553 41.50263779 -8.56057764 38.54890723 -8.53125 35.5 C-8.5350769 34.62730469 -8.53890381 33.75460938 -8.54284668 32.85546875 C-8.5455649 31.01300908 -8.53820994 29.17051076 -8.52148438 27.328125 C-8.50007248 24.50954066 -8.52128801 21.69350515 -8.546875 18.875 C-8.54423171 17.08332771 -8.53910669 15.29165701 -8.53125 13.5 C-8.53934692 12.65824219 -8.54744385 11.81648438 -8.55578613 10.94921875 C-8.46235399 5.11284382 -8.46235399 5.11284382 -6.09179688 1.97070312 C-3.8272647 0.37855305 -2.7390083 -0.042797 0 0 Z " fill="#ffffff" transform="translate(256,4.5)"/>
<path d="M0 0 C12.96882271 4.45323406 12.96882271 4.45323406 16 9 C16.65753425 15.90410959 16.65753425 15.90410959 14.5 19.5 C11.04723178 21.57166093 7.89486325 21.40408554 4 21 C1.26288715 20.29690661 -1.27851045 19.29467246 -3.875 18.1875 C-4.53757812 17.92646484 -5.20015625 17.66542969 -5.8828125 17.39648438 C-9.36189826 15.96454359 -10.86387183 15.20419225 -13 12 C-13.65364121 5.13676732 -13.65364121 5.13676732 -11.5625 1.5 C-7.63083165 -0.8014644 -4.34953157 -0.82354385 0 0 Z " fill="#ffffff" transform="translate(292,130)"/>
</svg>
