<?xml version="1.0" encoding="UTF-8"?>
<!DOCTYPE svg PUBLIC "-//W3C//DTD SVG 1.1//EN" "http://www.w3.org/Graphics/SVG/1.1/DTD/svg11.dtd">
<svg xmlns="http://www.w3.org/2000/svg" version="1.1" width="512px" height="512px" style="shape-rendering:geometricPrecision; text-rendering:geometricPrecision; image-rendering:optimizeQuality; fill-rule:evenodd; clip-rule:evenodd" xmlns:xlink="http://www.w3.org/1999/xlink">
<g><path style="opacity:0.94" fill="#ffffff" d="M 234.5,10.5 C 237.978,10.1842 241.312,10.6842 244.5,12C 257.712,27.5436 270.546,43.3769 283,59.5C 283.817,62.9643 283.483,66.2976 282,69.5C 267.5,81.3333 253,93.1667 238.5,105C 231.335,110.249 225.502,109.082 221,101.5C 219.632,95.7309 221.466,91.2309 226.5,88C 232.833,83 239.167,78 245.5,73C 180.272,77.1872 130.105,106.687 95,161.5C 69.0331,206.86 62.6998,254.86 76,305.5C 89.5811,350.536 116.081,385.703 155.5,411C 165.576,416.12 175.409,421.62 185,427.5C 188.232,436.036 185.398,441.369 176.5,443.5C 108.091,414.574 66.5911,363.574 52,290.5C 40.7434,202.175 71.5768,133.009 144.5,83C 177.278,62.9659 212.945,52.6326 251.5,52C 244.214,43.2583 237.047,34.425 230,25.5C 227.781,19.3282 229.281,14.3282 234.5,10.5 Z"/></g>
<g><path style="opacity:0.939" fill="#ffffff" d="M 325.5,66.5 C 380.35,87.8497 418.85,125.85 441,180.5C 467.814,255.947 456.481,324.947 407,387.5C 366.253,433.285 315.087,457.118 253.5,459C 260.667,468.167 267.833,477.333 275,486.5C 275.588,499.71 269.921,503.376 258,497.5C 246.667,483.5 235.333,469.5 224,455.5C 220.908,451.484 220.241,447.151 222,442.5C 235.874,430.29 250.041,418.457 264.5,407C 270.89,400.847 277.057,401.014 283,407.5C 285.202,412.401 284.368,416.734 280.5,420.5C 273.023,426.143 265.689,431.976 258.5,438C 324.34,433.679 374.84,403.846 410,348.5C 443.595,287.381 443.928,226.047 411,164.5C 388.747,127.75 357.914,100.75 318.5,83.5C 314.096,74.8496 316.429,69.1829 325.5,66.5 Z"/></g>
<g><path style="opacity:0.94" fill="#ffffff" d="M 317.5,133.5 C 322.447,132.628 326.613,133.961 330,137.5C 340.943,174.538 343.943,212.205 339,250.5C 328.413,309.119 293.58,337.286 234.5,335C 229.02,329.042 229.353,323.376 235.5,318C 285.464,316.453 313.631,290.953 320,241.5C 322.973,214.537 321.306,187.87 315,161.5C 306.132,167.015 296.632,171.182 286.5,174C 269.195,177.794 251.861,181.461 234.5,185C 214.351,190.481 200.518,202.981 193,222.5C 182.363,246.066 183.363,269.066 196,291.5C 215.886,261.938 239.72,235.771 267.5,213C 272.392,208.439 277.726,207.772 283.5,211C 286.18,214.423 287.013,218.256 286,222.5C 271.416,236.083 257.082,250.083 243,264.5C 217.823,291.053 199.156,321.719 187,356.5C 184.783,365.144 182.783,373.811 181,382.5C 176.8,386.714 171.966,387.548 166.5,385C 163.684,382.868 162.351,380.035 162.5,376.5C 165.692,353.591 172.692,331.924 183.5,311.5C 159.594,273.136 159.761,234.802 184,196.5C 192.807,184.034 204.307,174.867 218.5,169C 242.103,163.079 265.769,157.413 289.5,152C 300.074,147.571 309.407,141.405 317.5,133.5 Z"/></g>
</svg>
