<?xml version="1.0" encoding="UTF-8"?>
<!DOCTYPE svg PUBLIC "-//W3C//DTD SVG 1.1//EN" "http://www.w3.org/Graphics/SVG/1.1/DTD/svg11.dtd">
<svg xmlns="http://www.w3.org/2000/svg" version="1.1" width="512px" height="512px" style="shape-rendering:geometricPrecision; text-rendering:geometricPrecision; image-rendering:optimizeQuality; fill-rule:evenodd; clip-rule:evenodd" xmlns:xlink="http://www.w3.org/1999/xlink">
<g><path style="opacity:0.993" fill="#000000" d="M 233.5,-0.5 C 248.5,-0.5 263.5,-0.5 278.5,-0.5C 368.144,10.3879 435.644,54.7213 481,132.5C 497.695,163.971 507.861,197.304 511.5,232.5C 511.5,247.5 511.5,262.5 511.5,277.5C 499.016,377.807 447.016,449.307 355.5,492C 330.316,502.296 304.316,508.796 277.5,511.5C 262.5,511.5 247.5,511.5 232.5,511.5C 130.434,498.225 58.6008,444.558 17,350.5C 8.0309,327.127 2.19757,303.127 -0.5,278.5C -0.5,263.167 -0.5,247.833 -0.5,232.5C 9.30698,148.242 49.6403,83.0754 120.5,37C 155.422,15.9704 193.088,3.4704 233.5,-0.5 Z M 283.5,127.5 C 293.172,127.334 302.839,127.5 312.5,128C 314.848,128.346 316.681,129.513 318,131.5C 318.667,143.167 318.667,154.833 318,166.5C 317.5,168.333 316.333,169.5 314.5,170C 304.118,170.13 293.784,170.796 283.5,172C 275.807,175.203 271.973,181.036 272,189.5C 271.5,201.162 271.333,212.829 271.5,224.5C 286.504,224.333 301.504,224.5 316.5,225C 318.974,227.041 319.974,229.708 319.5,233C 318.407,243.175 317.24,253.341 316,263.5C 315.79,266.234 314.956,268.734 313.5,271C 299.598,272.465 285.598,272.965 271.5,272.5C 271.667,308.502 271.5,344.502 271,380.5C 270.228,381.849 269.061,382.682 267.5,383C 255.167,383.667 242.833,383.667 230.5,383C 228.671,382.727 227.171,381.893 226,380.5C 225.5,344.502 225.333,308.502 225.5,272.5C 214.73,272.953 204.063,272.453 193.5,271C 193,270.5 192.5,270 192,269.5C 191.333,255.5 191.333,241.5 192,227.5C 192.833,226.667 193.667,225.833 194.5,225C 204.828,224.5 215.161,224.334 225.5,224.5C 225.333,210.163 225.5,195.829 226,181.5C 229.927,147.069 249.093,129.069 283.5,127.5 Z"/></g>
</svg>
