<?xml version="1.0" encoding="UTF-8"?>
<!DOCTYPE svg PUBLIC "-//W3C//DTD SVG 1.1//EN" "http://www.w3.org/Graphics/SVG/1.1/DTD/svg11.dtd">
<svg xmlns="http://www.w3.org/2000/svg" version="1.1" width="512px" height="512px" style="shape-rendering:geometricPrecision; text-rendering:geometricPrecision; image-rendering:optimizeQuality; fill-rule:evenodd; clip-rule:evenodd" xmlns:xlink="http://www.w3.org/1999/xlink">
<g><path style="opacity:0.99" fill="#0b7060" d="M 233.5,-0.5 C 248.5,-0.5 263.5,-0.5 278.5,-0.5C 368.144,10.3879 435.644,54.7213 481,132.5C 497.695,163.971 507.861,197.304 511.5,232.5C 511.5,247.5 511.5,262.5 511.5,277.5C 499.016,377.807 447.016,449.307 355.5,492C 330.316,502.296 304.316,508.796 277.5,511.5C 262.5,511.5 247.5,511.5 232.5,511.5C 130.434,498.225 58.6008,444.558 17,350.5C 8.0309,327.127 2.19757,303.127 -0.5,278.5C -0.5,263.167 -0.5,247.833 -0.5,232.5C 9.30698,148.242 49.6403,83.0754 120.5,37C 155.422,15.9704 193.088,3.4704 233.5,-0.5 Z M 146.5,121.5 C 165.149,119.995 177.649,127.995 184,145.5C 186.838,162.994 180.338,175.494 164.5,183C 145.603,188.134 131.77,181.967 123,164.5C 118.263,143.308 126.096,128.975 146.5,121.5 Z M 313.5,206.5 C 361.512,202.417 386.678,224.417 389,272.5C 389.5,311.499 389.667,350.499 389.5,389.5C 371.167,389.5 352.833,389.5 334.5,389.5C 334.962,351.799 334.462,314.132 333,276.5C 329.518,261.682 320.185,254.349 305,254.5C 287.193,254.401 276.526,263.068 273,280.5C 271.539,316.798 271.039,353.132 271.5,389.5C 253.167,389.5 234.833,389.5 216.5,389.5C 216.5,329.833 216.5,270.167 216.5,210.5C 234.167,210.5 251.833,210.5 269.5,210.5C 269.169,218.86 269.502,227.193 270.5,235.5C 280.672,219.586 295.005,209.92 313.5,206.5 Z M 125.5,210.5 C 143.833,210.5 162.167,210.5 180.5,210.5C 180.5,270.167 180.5,329.833 180.5,389.5C 162.167,389.5 143.833,389.5 125.5,389.5C 125.5,329.833 125.5,270.167 125.5,210.5 Z"/></g>
</svg>
