<?xml version="1.0" encoding="UTF-8"?>
<!DOCTYPE svg PUBLIC "-//W3C//DTD SVG 1.1//EN" "http://www.w3.org/Graphics/SVG/1.1/DTD/svg11.dtd">
<svg xmlns="http://www.w3.org/2000/svg" version="1.1" width="512px" height="512px" style="shape-rendering:geometricPrecision; text-rendering:geometricPrecision; image-rendering:optimizeQuality; fill-rule:evenodd; clip-rule:evenodd" xmlns:xlink="http://www.w3.org/1999/xlink">
<g><path style="opacity:0.995" fill="#0b7060" d="M 232.5,-0.5 C 247.833,-0.5 263.167,-0.5 278.5,-0.5C 368.144,10.3879 435.644,54.7213 481,132.5C 497.695,163.971 507.861,197.304 511.5,232.5C 511.5,247.833 511.5,263.167 511.5,278.5C 500.612,368.144 456.279,435.644 378.5,481C 347.029,497.695 313.696,507.861 278.5,511.5C 263.167,511.5 247.833,511.5 232.5,511.5C 142.856,500.612 75.3562,456.279 30,378.5C 13.3053,347.029 3.1386,313.696 -0.5,278.5C -0.5,263.167 -0.5,247.833 -0.5,232.5C 10.3875,142.857 54.7208,75.3573 132.5,30C 163.971,13.3053 197.304,3.1386 232.5,-0.5 Z"/></g>
<g><path style="opacity:1" fill="#878787" d="M 196.5,105.5 C 167.329,105.169 138.329,105.502 109.5,106.5C 108.957,106.44 108.624,106.107 108.5,105.5C 137.997,104.17 167.331,104.17 196.5,105.5 Z"/></g>
<g><path style="opacity:1" fill="#878787" d="M 366.5,105.5 C 375.009,104.179 383.675,104.179 392.5,105.5C 392.376,106.107 392.043,106.44 391.5,106.5C 383.35,105.507 375.017,105.174 366.5,105.5 Z"/></g>
<g><path style="opacity:1" fill="#fbfbfb" d="M 196.5,105.5 C 221.446,142.286 246.613,178.953 272,215.5C 303.336,178.666 334.836,142 366.5,105.5C 375.017,105.174 383.35,105.507 391.5,106.5C 355.897,148.775 319.897,190.775 283.5,232.5C 323.29,289.913 362.957,347.413 402.5,405C 373.167,405.667 343.833,405.667 314.5,405C 287.996,366.339 261.329,327.839 234.5,289.5C 201.149,328.238 167.816,366.905 134.5,405.5C 125.983,405.826 117.65,405.493 109.5,404.5C 147.345,360.488 185.011,316.322 222.5,272C 185.2,216.561 147.533,161.395 109.5,106.5C 138.329,105.502 167.329,105.169 196.5,105.5 Z"/></g>
<g><path style="opacity:1" fill="#0b7060" d="M 144.5,124.5 C 157.504,124.333 170.504,124.5 183.5,125C 244.695,212.028 305.695,299.195 366.5,386.5C 353.513,387.666 340.513,387.833 327.5,387C 265.865,299.878 204.865,212.378 144.5,124.5 Z"/></g>
<g><path style="opacity:1" fill="#454545" d="M 109.5,404.5 C 117.65,405.493 125.983,405.826 134.5,405.5C 125.991,406.821 117.325,406.821 108.5,405.5C 108.624,404.893 108.957,404.56 109.5,404.5 Z"/></g>
</svg>
